<svg id="Layer_1" data-name="Layer 1" xmlns="http://www.w3.org/2000/svg" viewBox="0 0 402.13 144"><defs><style>.cls-1,.cls-10,.cls-12,.cls-2,.cls-4,.cls-5,.cls-6,.cls-7{fill:#f9f8f7;}.cls-2{font-size:18px;letter-spacing:0.04em;}.cls-12,.cls-2,.cls-4,.cls-5,.cls-6,.cls-7{font-family:TitilliumWeb-Bold, Titillium Web;font-weight:700;}.cls-3{letter-spacing:0.03em;}.cls-4,.cls-5,.cls-6,.cls-7{font-size:11px;}.cls-4{letter-spacing:0.06em;}.cls-5{letter-spacing:0.06em;}.cls-6,.cls-9{letter-spacing:0.06em;}.cls-7{letter-spacing:0.06em;}.cls-8{letter-spacing:0.05em;}.cls-10{font-size:48px;font-family:Stencil;}.cls-10,.cls-12{stroke:#f9f8f7;stroke-miterlimit:10;}.cls-11{stroke:#f8981d;stroke-width:0.75px;}.cls-12{font-size:52px;letter-spacing:-0.01em;}</style></defs><title>logo-white</title><path class="cls-1" d="M34.8,131.27l13.65,6V108.61l-15.19.11,1,3.81a40,40,0,0,1,.7,17.79Z"/><path class="cls-1" d="M67.62,108.72l-15.19-.11V137.3l13.65-6-.18-1a40.19,40.19,0,0,1,.7-17.79Z"/><path class="cls-1" d="M50.52,41.19a7.49,7.49,0,1,0,7.3,7.49,7.41,7.41,0,0,0-7.3-7.49m0,11.59a4.11,4.11,0,1,1,4-4.1,4,4,0,0,1-4,4.1"/><path class="cls-1" d="M47.9,9.06C29.11,10.31,13.73,25.7,12.09,44.94a40,40,0,0,0,8.09,27.9c1.6,2.08,3.17,4.22,4.69,6.42,5.09,7.32,7.82,25.45,7.82,25.45H44.74L34,60l5.15,2A31.12,31.12,0,0,0,62,62l5-2-10.93,44.7H68s2.56-17.36,7.45-24.55c1.76-2.59,3.55-5.09,5.27-7.32A39.84,39.84,0,0,0,89,48.48C89,25.79,70.33,7.58,47.9,9.06m2.62,51.19A11.57,11.57,0,1,1,61.8,48.68,11.43,11.43,0,0,1,50.52,60.25M67.78,44.31a18.42,18.42,0,0,0-34.56.09l-3.7-1.5a22.36,22.36,0,0,1,42-.1Z"/><path class="cls-1" d="M50.53,68.27a34.83,34.83,0,0,1-10.88-1.74L48,101.14h4.9l8.46-34.58a35,35,0,0,1-10.81,1.71m-.21,23.11-3.63-6.84,2.1-13.66H52l2.38,13.66Z"/><text class="cls-2" transform="translate(142.2 96.17)">Create. El<tspan class="cls-3" x="81.18" y="0">ev</tspan><tspan x="100.55" y="0">ate. Sustain. </tspan></text><text class="cls-4" transform="translate(191.45 116.14)">4</text><text class="cls-5" transform="translate(198.25 112.48) scale(0.58)">th </text><text class="cls-6" transform="translate(206.65 116.14)">&amp; 5</text><text class="cls-7" transform="translate(224.86 112.48) scale(0.58)">th </text><text class="cls-4" transform="translate(233.27 116.14)">N<tspan class="cls-8" x="8.26" y="0">O</tspan><tspan class="cls-9" x="15.96" y="0">VEMBER</tspan></text><path class="cls-1" d="M125,73.8h-8.75V40.32h8.68v1.87a16.15,16.15,0,0,1,8.17-2.68q6.52,0,9,4t2.48,12.18V73.8h-8.75V55.92a15.48,15.48,0,0,0-1-6.33c-.65-1.36-2-2-3.92-2a14.42,14.42,0,0,0-5.16.94l-.78.26Z"/><polygon class="cls-1" points="149 40.32 158.14 40.32 163.36 66.17 165.19 66.17 170.68 40.32 179.56 40.32 171.72 73.8 156.83 73.8 149 40.32"/><path class="cls-1" d="M192.91,65.33a6.37,6.37,0,0,0,4.41,1.38q6.08,0,10.84-.41l1.83-.2.13,6.63a56.68,56.68,0,0,1-13.58,1.88q-7.38,0-10.71-4T182.5,57.53q0-18,14.43-18,14.23,0,14.23,15.13l-.65,6.23h-19.2a5.87,5.87,0,0,0,1.6,4.45m9.63-11.28q0-4-1.24-5.59c-.82-1.05-2.27-1.57-4.34-1.58s-3.53.55-4.37,1.64-1.3,2.94-1.34,5.53Z"/><path class="cls-1" d="M226.18,73.81h-8.75V40.32h8.69V42.2a16,16,0,0,1,8.16-2.68q6.53,0,9,3.95t2.48,12.19V73.81H237V55.93a15.28,15.28,0,0,0-1-6.33c-.65-1.36-2-2-3.92-2a14.54,14.54,0,0,0-5.15.93l-.79.27Z"/><path class="cls-1" d="M271.63,48h-8V61.69c0,1.34,0,2.29.09,2.84a2.37,2.37,0,0,0,.72,1.44,2.66,2.66,0,0,0,1.93.61l5-.14.39,7.17a32.25,32.25,0,0,1-6.66,1c-3.92,0-6.59-.9-8-2.71s-2.15-5.15-2.15-10V48H251V40.33h3.85V31h8.75v9.31h8Z"/><path class="cls-1" d="M286.09,65.34a6.42,6.42,0,0,0,4.41,1.37q6.08,0,10.84-.4l1.83-.2.13,6.63a56.63,56.63,0,0,1-13.58,1.87q-7.38,0-10.71-4t-3.33-13.06q0-18,14.43-18,14.24,0,14.23,15.14l-.65,6.23h-19.2a5.93,5.93,0,0,0,1.6,4.45m9.63-11.28q0-4-1.24-5.6c-.82-1-2.27-1.57-4.34-1.57s-3.52.55-4.37,1.64-1.3,2.94-1.34,5.53Z"/><path class="cls-1" d="M108.09,33.44a5.6,5.6,0,1,1-5.6-5.75,5.67,5.67,0,0,1,5.6,5.75"/><polygon class="cls-1" points="102.19 75.21 96.4 64.31 99.75 42.56 104.8 42.56 108.59 64.31 102.19 75.21"/><text class="cls-10" transform="translate(329.41 15.56) rotate(180)">‘<tspan class="cls-11" x="16.03" y="0"> </tspan></text><text class="cls-12" transform="translate(326.83 74.5)">22</text></svg>