<?xml version="1.0" encoding="UTF-8"?>
<svg width="374px" height="133px" viewBox="0 0 374 133" version="1.1" xmlns="http://www.w3.org/2000/svg" xmlns:xlink="http://www.w3.org/1999/xlink">
    <title>invente</title>
    <g id="Page-1" stroke="none" stroke-width="1" fill="none" fill-rule="evenodd">
        <g id="Artboard" transform="translate(-2119.000000, -1406.000000)" fill="#F9F9FA" fill-rule="nonzero">
            <g id="invente" transform="translate(2119.000000, 1406.000000)">
                <path d="M22.8658516,126.71 L36.5158516,132.71 L36.5158516,104.05 L21.3258516,104.16 L22.3258516,107.97 C23.8926842,113.772112 24.1319434,119.852714 23.0258516,125.76 L22.8658516,126.71 Z" id="Path"></path>
                <path d="M55.6858516,104.16 L40.4958516,104.05 L40.4958516,132.74 L54.1458516,126.74 L53.9658516,125.74 C52.8597599,119.832714 53.0990191,113.752112 54.6658516,107.95 L55.6858516,104.16 Z" id="Path"></path>
                <path d="M38.5858516,36.63 C35.5403289,36.552719 32.751434,38.3277861 31.5320229,41.1195987 C30.3126119,43.9114114 30.9056551,47.1636531 33.0320267,49.3453501 C35.1583803,51.5270471 38.3943136,52.2034588 41.2165302,51.0561685 C44.0387467,49.9088781 45.8848713,47.166503 45.8858516,44.12 C45.9358843,40.0368266 42.6689628,36.6848756 38.5858516,36.63 M38.5858516,48.23 C36.9142285,48.2747552 35.3821457,47.3022597 34.7111928,45.7705453 C34.0402399,44.2388308 34.3642013,42.4533129 35.5304956,41.2549454 C36.6967899,40.056578 38.4728645,39.684309 40.0222131,40.3134719 C41.5715617,40.9426348 42.5852526,42.447778 42.5858516,44.12 C42.6136633,46.3584923 40.8242748,48.197089 38.5858516,48.23" id="Shape"></path>
                <path d="M35.9658516,4.51 C17.1758516,5.75 1.79585164,21.15 0.155851642,40.39 C-0.727992427,50.3757234 2.16993041,60.3293032 8.27585164,68.28 C9.87585164,70.36 11.4458516,72.51 12.9658516,74.7 C18.0558516,82.03 20.7758516,100.16 20.7758516,100.16 L32.8058516,100.16 L22.0458516,55.46 L27.1958516,57.46 C34.5434423,60.3597089 42.7182609,60.3597089 50.0658516,57.46 L55.0658516,55.46 L44.1658516,100.16 L56.0758516,100.16 C56.0758516,100.16 58.6258516,82.8 63.5158516,75.58 C65.2858516,72.99 67.0758516,70.49 68.7858516,68.26 C74.1553711,61.2726322 77.0567328,52.7021854 77.0359636,43.89 C77.0359636,21.21 58.3958516,2.99 35.9658516,4.48 M38.5858516,55.66 C33.8788976,55.7780038 29.5699101,53.0318478 27.6890783,48.7153894 C25.8082464,44.3989311 26.7307622,39.3732261 30.0219803,36.0061466 C33.3131984,32.6390671 38.3165802,31.6022847 42.674771,33.3842818 C47.0329618,35.1662789 49.8765812,39.4115793 49.8658516,44.12 C49.9436695,50.428949 44.8947435,55.607679 38.5858516,55.69 M55.8358516,39.75 C53.1372736,32.5308122 46.2315931,27.7531272 38.5245449,27.7731977 C30.8174966,27.7932681 23.9367934,32.6068551 21.2758516,39.84 L17.5758516,38.35 C20.7855524,29.534059 29.1554265,23.6576619 38.5374514,23.6330126 C47.9194763,23.608518 56.3200165,29.4409926 59.5758516,38.24 L55.8358516,39.75 Z" id="Shape"></path>
                <path d="M38.5958516,63.71 C34.8998357,63.7109441 31.2272259,63.1235966 27.7158516,61.97 L36.0458516,96.58 L40.9458516,96.58 L49.4058516,62 C45.9144826,63.1333358 42.266561,63.710389 38.5958516,63.71 M38.3858516,86.82 L34.7458516,79.98 L36.8458516,66.32 L40.0258516,66.32 L42.4058516,79.98 L38.3858516,86.82 Z" id="Shape"></path>
                <path d="M113.025852,69.24 L104.275852,69.24 L104.275852,35.76 L112.955852,35.76 L112.955852,37.64 C115.380764,36.0196678 118.202434,35.092943 121.115852,34.96 C125.475852,34.96 128.475852,36.2766667 130.115852,38.91 C131.755852,41.5433333 132.582518,45.6066667 132.595852,51.1 L132.595852,69.24 L123.845852,69.24 L123.845852,51.36 C123.962897,49.2063361 123.622072,47.0523243 122.845852,45.04 C122.195852,43.67 120.845852,42.99 118.935852,42.99 C117.173131,42.9883997 115.42477,43.3068997 113.775852,43.93 L112.995852,44.2 L113.025852,69.24 Z" id="Path"></path>
                <polygon id="Path" points="137.055852 35.76 146.205852 35.76 151.425852 61.61 153.255852 61.61 158.745852 35.76 167.615852 35.76 159.785852 69.25 144.895852 69.24"></polygon>
                <path d="M180.975852,60.78 C182.221974,61.7663225 183.790065,62.254569 185.375852,62.15 C189.425852,62.15 193.045852,62.02 196.215852,61.75 L198.045852,61.55 L198.175852,68.18 C193.74186,69.352193 189.181638,69.9801469 184.595852,70.05 C179.675852,70.05 176.105852,68.7166667 173.885852,66.05 C171.665852,63.3833333 170.555852,59.03 170.555852,52.99 C170.555852,40.99 175.365852,34.99 184.985852,34.99 C194.472518,34.99 199.219185,40.0366667 199.225852,50.13 L198.575852,56.35 L179.375852,56.35 C179.257556,57.9956156 179.83845,59.6148587 180.975852,60.81 M190.605852,49.52 C190.605852,46.8533333 190.192518,44.99 189.365852,43.93 C188.535852,42.93 187.085852,42.36 185.025852,42.36 C182.965852,42.36 181.495852,42.9 180.645852,44 C179.795852,45.1 179.355852,46.93 179.305852,49.52 L190.605852,49.52 Z" id="Shape"></path>
                <path d="M214.275852,69.25 L205.525852,69.25 L205.525852,35.77 L214.205852,35.77 L214.205852,37.64 C216.636312,36.0234408 219.460103,35.0971544 222.375852,34.96 C226.722518,34.96 229.722518,36.2933333 231.375852,38.96 C233.029185,41.6266667 233.855852,45.6866667 233.855852,51.14 L233.855852,69.25 L225.105852,69.25 L225.105852,51.37 C225.218595,49.2132992 224.877934,47.0569179 224.105852,45.04 C223.455852,43.68 222.105852,43.04 220.185852,43.04 C218.42277,43.0343575 216.673682,43.3529898 215.025852,43.98 L214.245852,44.24 L214.275852,69.25 Z" id="Path"></path>
                <path d="M259.695852,43.4 L251.695852,43.4 L251.695852,57.13 C251.695852,58.47 251.695852,59.42 251.795852,59.98 C251.85627,60.5305557 252.111658,61.0413322 252.515852,61.42 C253.055709,61.8651727 253.748751,62.0806261 254.445852,62.02 L259.445852,61.89 L259.835852,69.05 C257.656328,69.6123632 255.424421,69.9474843 253.175852,70.05 C249.255852,70.05 246.589185,69.1433333 245.175852,67.33 C243.762518,65.5166667 243.042518,62.1833333 243.015852,57.33 L243.015852,43.4 L239.165852,43.4 L239.165852,35.77 L243.015852,35.77 L243.015852,26.46 L251.765852,26.46 L251.765852,35.77 L259.765852,35.77 L259.695852,43.4 Z" id="Path"></path>
                <path d="M274.155852,60.78 C275.402752,61.7721824 276.976239,62.260998 278.565852,62.15 C282.565852,62.15 286.225852,62.02 289.395852,61.75 L291.275852,61.58 L291.405852,68.21 C286.972179,69.385082 282.41201,70.0163867 277.825852,70.09 C272.905852,70.09 269.335852,68.7566667 267.115852,66.09 C264.895852,63.4233333 263.769185,59.0533333 263.735852,52.98 C263.735852,40.98 268.549185,34.98 278.175852,34.98 C287.669185,34.98 292.412518,40.0233333 292.405859,50.11 L291.755852,56.34 L272.555852,56.34 C272.555852,58.34 273.125852,59.88 274.155852,60.79 M283.785852,49.51 C283.785852,46.8433333 283.372518,44.98 282.545852,43.92 C281.715852,42.92 280.265852,42.34 278.205852,42.34 C276.145852,42.34 274.675852,42.89 273.825852,43.98 C272.975852,45.07 272.535852,46.92 272.485852,49.51 L283.785852,49.51 Z" id="Shape"></path>
                <path d="M96.1558516,28.88 C96.0789926,31.9533955 93.538781,34.3901536 90.4648464,34.3392315 C87.3909117,34.2883094 84.9328053,31.7687504 84.9577868,28.6944955 C84.9827683,25.6202405 87.4814954,23.1409609 90.5558516,23.14 C92.0596657,23.158451 93.4945444,23.7735931 94.5447727,24.850077 C95.5950009,25.926561 96.1745318,27.3761888 96.1558516,28.88" id="Path"></path>
                <polygon id="Path" points="90.2458516 70.66 84.4558516 59.75 87.8058516 38 92.8558516 38 96.6458516 59.75"></polygon>
                <text id="‘" transform="translate(307.975852, 29.000000) rotate(180.000000) translate(-307.975852, -29.000000) " font-family="Helvetica" font-size="48" font-weight="normal">
                    <tspan x="302.475852" y="47">‘</tspan>
                </text>
                <text id="22" font-family="SFProDisplay-Semibold, SF Pro Display" font-size="52" font-weight="500">
                    <tspan x="310.885852" y="69.94">22</tspan>
                </text>
            </g>
        </g>
    </g>
</svg>