<?xml version="1.0" encoding="UTF-8"?>
<svg width="374px" height="134px" viewBox="0 0 374 134" version="1.1" xmlns="http://www.w3.org/2000/svg" xmlns:xlink="http://www.w3.org/1999/xlink">
    <title>invente_logo_svg</title>
    <g id="Page-1" stroke="none" stroke-width="1" fill="none" fill-rule="evenodd">
        <g id="Artboard" transform="translate(-2037.000000, -723.000000)" fill="#F9F8F7">
            <g id="invente" transform="translate(1633.000000, 724.000000)">
                <g id="invente_logo_svg" transform="translate(404.000000, 0.000000)">
                    <path d="M22.8697717,126.71 L36.5197717,132.71 L36.5197717,104.05 L21.3297717,104.16 L22.3297717,107.97 C23.900368,113.771537 24.1396608,119.852991 23.0297717,125.76 L22.8697717,126.71 Z" id="Path" fill-rule="nonzero"></path>
                    <path d="M55.6897717,104.16 L40.4997717,104.05 L40.4997717,132.74 L54.1497717,126.74 L53.9697717,125.74 C52.8701881,119.83224 53.10939,113.753096 54.6697717,107.95 L55.6897717,104.16 Z" id="Path" fill-rule="nonzero"></path>
                    <path d="M38.5897717,36.63 C34.4550828,36.5264459 31.0190713,39.7938496 30.9146303,43.9285161 C30.8101893,48.0631827 34.0768559,51.499895 38.2114999,51.6052229 C42.346144,51.7105508 45.7835569,48.4446213 45.8897717,44.31 L45.8897717,44.12 C45.9342794,40.0390365 42.6705318,36.690342 38.5897717,36.63 M38.5897717,48.22 C36.3210554,48.2799068 34.4331891,46.4896042 34.3727407,44.2209022 C34.3122922,41.9522003 36.102144,40.0639067 38.3708314,40.0029165 C40.6395188,39.9419263 42.5282398,41.7313272 42.5897717,44 L42.5897717,44.12 C42.6166274,45.1809593 42.2207467,46.2091006 41.4892848,46.9780734 C40.7578228,47.7470463 39.7507475,48.1938074 38.6897717,48.22 L38.5897717,48.22" id="Shape" fill-rule="nonzero"></path>
                    <path d="M35.9697717,4.5 C17.1797717,5.75 1.79977166,21.14 0.159771664,40.38 C-0.735140068,50.365196 2.15209351,60.3224045 8.24977166,68.28 C9.84977166,70.36 11.4197717,72.5 12.9397717,74.7 C18.0297717,82.02 20.7597717,100.15 20.7597717,100.15 L32.8097717,100.15 L22.0697717,55.44 L27.2197717,57.44 C34.5603122,60.3404554 42.7292311,60.3404554 50.0697717,57.44 L55.0697717,55.44 L44.1397717,100.14 L56.0697717,100.14 C56.0697717,100.14 58.6297717,82.78 63.5197717,75.59 C65.2797717,73 67.0697717,70.5 68.7897717,68.27 C74.1685309,61.2933593 77.0806496,52.7293386 77.069802,43.92 C77.069802,21.23 58.3997717,3.02 35.9697717,4.5 M38.5897717,55.69 C32.2027393,55.8480823 26.8965182,50.7992392 26.7370984,44.4122401 C26.5776786,38.0252409 31.6254104,32.7179626 38.012376,32.5572053 C44.3993415,32.396448 49.7076768,37.4430682 49.8697717,43.83 L49.8697717,44.12 C49.9475896,50.428949 44.8986635,55.607679 38.5897717,55.69 M55.8497717,39.75 C53.1597939,32.5215086 46.2511758,27.7342952 38.5384159,27.7543805 C30.825656,27.7744658 23.9420648,32.5975964 21.2897717,39.84 L17.5897717,38.34 C20.7928002,29.5154726 29.1669964,23.6313974 38.554817,23.6089816 C47.9426377,23.5866935 56.3447581,29.4308251 59.5897717,38.24 L55.8497717,39.75 Z" id="Shape" fill-rule="nonzero"></path>
                    <path d="M38.5997717,63.71 C34.9039039,63.7090803 31.2315865,63.1217795 27.7197717,61.97 L36.0697717,96.58 L40.9697717,96.58 L49.4297717,62 C45.937977,63.1315601 42.2903378,63.7085687 38.6197717,63.71 M38.4097717,86.82 L34.7797717,79.98 L36.8797717,66.32 L40.0697717,66.32 L42.4497717,79.98 L38.4097717,86.82 Z" id="Shape" fill-rule="nonzero"></path>
                    <path d="M113.069772,69.24 L104.319772,69.24 L104.319772,35.76 L112.999772,35.76 L112.999772,37.63 C115.42979,36.0125298 118.25384,35.0861584 121.169772,34.95 C125.523105,34.95 128.523105,36.2833333 130.169772,38.95 C131.816438,41.6166667 132.643105,45.6766667 132.649772,51.13 L132.649772,69.24 L123.899772,69.24 L123.899772,51.36 C124.010147,49.2034236 123.669563,47.0475294 122.899772,45.03 C122.249772,43.67 120.899772,43.03 118.979772,43.03 C117.216851,43.0261669 115.46809,43.3447397 113.819772,43.97 L113.039772,44.23 L113.069772,69.24 Z" id="Path" fill-rule="nonzero"></path>
                    <polygon id="Path" fill-rule="nonzero" points="137.069772 35.76 146.209772 35.76 151.429772 61.61 153.259772 61.61 158.749772 35.76 167.629772 35.76 159.789772 69.24 144.899772 69.24"></polygon>
                    <path d="M180.979772,60.77 C182.224296,61.7675138 183.798628,62.260162 185.389772,62.15 C189.439772,62.15 193.059772,62.01 196.229772,61.74 L198.059772,61.54 L198.189772,68.17 C193.75606,69.3448875 189.195915,69.9761889 184.609772,70.05 C179.689772,70.05 176.119772,68.7166667 173.899772,66.05 C171.679772,63.3833333 170.569772,59.0233333 170.569772,52.97 C170.569772,40.97 175.379772,34.97 184.999772,34.97 C194.486438,34.97 199.229772,40.0133333 199.229772,50.1 L198.579772,56.33 L179.379772,56.33 C179.269323,57.9715364 179.849313,59.5846325 180.979772,60.78 M190.609772,49.5 C190.609772,46.8333333 190.196438,44.97 189.369772,43.91 C188.549772,42.91 187.099772,42.34 185.029772,42.33 C182.959772,42.32 181.499772,42.88 180.659772,43.97 C179.819772,45.06 179.359772,46.91 179.319772,49.5 L190.609772,49.5 Z" id="Shape" fill-rule="nonzero"></path>
                    <path d="M214.249772,69.25 L205.499772,69.25 L205.499772,35.76 L214.189772,35.76 L214.189772,37.64 C216.614684,36.0196678 219.436354,35.092943 222.349772,34.96 C226.703105,34.96 229.703105,36.2766667 231.349772,38.91 C232.996438,41.5433333 233.823105,45.6066667 233.829772,51.1 L233.829772,69.25 L225.069772,69.25 L225.069772,51.37 C225.190081,49.2129103 224.849172,47.0549554 224.069772,45.04 C223.419772,43.68 222.069772,43.04 220.149772,43.04 C218.391143,43.0377318 216.646532,43.352778 214.999772,43.97 L214.209772,44.24 L214.249772,69.25 Z" id="Path" fill-rule="nonzero"></path>
                    <path d="M259.699772,43.44 L251.699772,43.44 L251.699772,57.13 C251.669693,58.0776174 251.699753,59.0261885 251.789772,59.97 C251.851894,60.5200521 252.107004,61.0302707 252.509772,61.41 C253.047583,61.8597219 253.74119,62.0789449 254.439772,62.02 L259.439772,61.88 L259.829772,69.05 C257.650277,69.612504 255.418355,69.9476273 253.169772,70.05 C249.249772,70.05 246.583105,69.1466667 245.169772,67.34 C243.759772,65.53 243.019772,62.19 243.019772,57.34 L243.019772,43.44 L239.069772,43.44 L239.069772,35.77 L242.919772,35.77 L242.919772,26.44 L251.669772,26.44 L251.669772,35.75 L259.669772,35.75 L259.699772,43.44 Z" id="Path" fill-rule="nonzero"></path>
                    <path d="M274.159772,60.78 C275.407595,61.7704384 276.980388,62.2590386 278.569772,62.15 C282.619772,62.15 286.239772,62.02 289.409772,61.75 L291.239772,61.55 L291.369772,68.18 C286.935663,69.3516089 282.375513,69.979553 277.789772,70.05 C272.869772,70.05 269.299772,68.7166667 267.079772,66.05 C264.859772,63.3833333 263.749772,59.03 263.749772,52.99 C263.749772,40.99 268.559772,34.99 278.179772,34.99 C287.673105,34.99 292.416438,40.0366667 292.409779,50.13 L291.759772,56.36 L272.559772,56.36 C272.450555,58.0013639 273.030372,59.6139812 274.159772,60.81 M283.789772,49.53 C283.789772,46.86 283.379772,45 282.549772,43.93 C281.719772,42.86 280.279772,42.36 278.209772,42.36 C276.139772,42.36 274.689772,42.91 273.839772,44 C272.989772,45.09 272.539772,46.94 272.499772,49.53 L283.789772,49.53 Z" id="Shape" fill-rule="nonzero"></path>
                    <path d="M96.1597717,28.88 C96.0774584,31.9519203 93.5349831,34.3836302 90.4624437,34.3291185 C87.3899043,34.2746068 84.9352868,31.7542406 84.9619924,28.6813337 C84.9886981,25.6084268 87.4867489,23.1311026 90.5597717,23.13 C92.0635857,23.148451 93.4984645,23.7635931 94.5486927,24.840077 C95.598921,25.916561 96.1784519,27.3661888 96.1597717,28.87 L96.1597717,28.87" id="Path" fill-rule="nonzero"></path>
                    <polygon id="Path" fill-rule="nonzero" points="90.2597717 70.65 84.4697717 59.75 87.8197717 38 92.8697717 38 96.6597717 59.75"></polygon>
                    <text id="‘" fill-rule="nonzero" transform="translate(311.979772, 29.000000) rotate(180.000000) translate(-311.979772, -29.000000) " font-family="Helvetica" font-size="48" font-weight="normal">
                        <tspan x="306.479772" y="47">‘</tspan>
                    </text>
                    <text id="‘" stroke="#F9F8F7" transform="translate(311.979772, 29.000000) rotate(180.000000) translate(-311.979772, -29.000000) " font-family="Helvetica" font-size="48" font-weight="normal">
                        <tspan x="306.479772" y="47">‘</tspan>
                    </text>
                    <text id="22" fill-rule="nonzero" font-family="Arial-BoldMT, Arial" font-size="52" font-weight="bold">
                        <tspan x="314.899772" y="69.94">22</tspan>
                    </text>
                    <text id="22" stroke="#F9F8F7" font-family="Arial-BoldMT, Arial" font-size="52" font-weight="bold">
                        <tspan x="314.899772" y="69.94">22</tspan>
                    </text>
                    <text id="Create.-Elevate.-Sus" opacity="0.7" font-family="A-SpaceDemo, A-Space Demo" font-size="18" font-weight="normal">
                        <tspan x="91" y="100">Create. Elevate. Sustain.</tspan>
                    </text>
                    <text id="3rd-&amp;-4th" opacity="0.7" font-family="A-SpaceDemo, A-Space Demo" font-size="18" font-weight="normal">
                        <tspan x="91" y="123">3</tspan>
                        <tspan x="104.798828" y="123" font-size="12">rd </tspan>
                        <tspan x="126.548828" y="123" font-family="Ubuntu-Regular, Ubuntu">&amp;</tspan>
                        <tspan x="138.536828" y="123" font-size="12"> </tspan>
                        <tspan x="142.638391" y="123">4</tspan>
                        <tspan x="158.625695" y="123" font-size="12">th</tspan>
                    </text>
                    <text id="november" opacity="0.698823475" font-family="A-SpaceDemo, A-Space Demo" font-size="18" font-weight="normal">
                        <tspan x="186" y="122">november</tspan>
                    </text>
                </g>
            </g>
        </g>
    </g>
</svg>