<svg xmlns="http://www.w3.org/2000/svg" viewBox="0 0 287.73 92.8"><defs><style>.cls-1,.cls-2,.cls-4{fill:#f9f8f7;}.cls-2,.cls-3,.cls-4,.cls-5{isolation:isolate;}.cls-2,.cls-3{font-size:48px;font-family:Stencil;}.cls-3,.cls-5{fill:none;stroke:#f9f8f7;stroke-miterlimit:10;}.cls-4,.cls-5{font-size:52px;font-family:Arial-BoldMT, Arial;font-weight:700;letter-spacing:-0.01em;}</style></defs><g id="Layer_2" data-name="Layer 2"><g id="Layer_1-2" data-name="Layer 1"><path class="cls-1" d="M28.6,72H19.85V38.55h8.68v1.87a16.1,16.1,0,0,1,8.17-2.68q6.52,0,9,4t2.48,12.18V72H39.43V54.15a15.53,15.53,0,0,0-1-6.33c-.65-1.36-2-2-3.92-2a14.24,14.24,0,0,0-5.16.94l-.78.26Z"/><polygon class="cls-1" points="52.6 38.55 61.74 38.55 66.96 64.4 68.79 64.4 74.28 38.55 83.16 38.55 75.32 72.03 60.43 72.03 52.6 38.55"/><path class="cls-1" d="M96.51,63.56a6.4,6.4,0,0,0,4.41,1.38c4,0,7.67-.14,10.84-.41l1.83-.2.13,6.63a57.08,57.08,0,0,1-13.58,1.88q-7.38,0-10.71-4T86.1,55.76q0-18,14.43-18,14.23,0,14.23,15.13l-.65,6.23H94.91a5.9,5.9,0,0,0,1.6,4.45m9.63-11.28q0-4-1.24-5.59c-.82-1.05-2.27-1.57-4.34-1.58s-3.53.55-4.37,1.64-1.3,2.94-1.34,5.53Z"/><path class="cls-1" d="M129.78,72H121V38.55h8.69v1.88a16,16,0,0,1,8.16-2.68q6.52,0,9,4t2.48,12.19V72H140.6V54.16a15.18,15.18,0,0,0-1-6.33c-.65-1.36-2-2-3.92-2a14.39,14.39,0,0,0-5.15.93l-.79.27Z"/><path class="cls-1" d="M175.23,46.23h-8V59.92a22.42,22.42,0,0,0,.09,2.84A2.34,2.34,0,0,0,168,64.2a2.66,2.66,0,0,0,1.93.61l5-.14.39,7.17a32.58,32.58,0,0,1-6.66,1q-5.88,0-8-2.71c-1.41-1.81-2.15-5.15-2.15-10V46.23h-4V38.56h3.85V29.23h8.75v9.31h8Z"/><path class="cls-1" d="M189.69,63.57a6.44,6.44,0,0,0,4.41,1.37c4.05,0,7.67-.13,10.84-.4l1.83-.2L206.9,71a56.56,56.56,0,0,1-13.58,1.87q-7.38,0-10.71-4t-3.33-13.06q0-18,14.43-18,14.23,0,14.23,15.14l-.65,6.23h-19.2a5.91,5.91,0,0,0,1.6,4.45m9.63-11.28c0-2.67-.41-4.53-1.24-5.6s-2.27-1.57-4.34-1.57-3.52.55-4.37,1.64-1.3,2.94-1.34,5.53Z"/><path class="cls-1" d="M11.69,31.67a5.6,5.6,0,1,1-5.6-5.75,5.67,5.67,0,0,1,5.6,5.74h0"/><polygon class="cls-1" points="5.79 73.44 0 62.54 3.35 40.79 8.4 40.79 12.19 62.54 5.79 73.44"/><text class="cls-2" transform="translate(233.01 13.79) rotate(180)">‘</text><text class="cls-3" transform="translate(233.01 13.79) rotate(180)">‘</text><text class="cls-4" transform="translate(230.43 72.73)">22</text><text class="cls-5" transform="translate(230.43 72.73)">22</text></g></g></svg>