<?xml version="1.0" encoding="UTF-8"?>
<svg width="1842px" height="511px" viewBox="0 0 1842 511" version="1.1" xmlns="http://www.w3.org/2000/svg" xmlns:xlink="http://www.w3.org/1999/xlink">
    <title>snu</title>
    <g id="Page-1" stroke="none" stroke-width="1" fill="none" fill-rule="evenodd">
        <g id="Artboard" transform="translate(-480.000000, -1029.000000)" fill-rule="nonzero">
            <g id="snu" transform="translate(482.000000, 1031.000000)">
                <path d="M130.612865,178.267009 C127.88689,185.199716 123.661759,191.443109 118.240367,196.549607 C93.6592465,218.849458 45.4802498,212.126709 4.34784083,211.79877 L3.85621842,162.607922 L9.75568741,162.607922 C9.75568741,191.794492 63.0147827,213.110526 92.3482534,185.563651 C113.160269,165.969297 99.5587155,139.980132 74.1582241,125.304863 L31.7967591,100.709439 C21.8545647,95.6916871 13.3845839,88.1772678 7.21563827,78.9014965 C2.42915333,70.8437363 -0.0642438684,61.6298089 0.00517614469,52.256454 C-0.102317314,44.7892317 1.46566992,37.3929908 4.59365204,30.612481 C24.586297,-10.8718005 84.3184206,0.934002918 121.026228,3.55751479 L121.026228,45.8616438 L115.126759,45.8616438 C114.717073,22.0860674 84.5642318,10.1162945 61.2941042,15.117364 C38.0239764,20.1184335 25.733416,43.1561472 39.0891583,62.8324862 C43.4793369,68.6529479 49.0678721,73.4618846 55.4765723,76.9338626 L80.0576931,91.1992083 C88.2513999,95.7903541 94.5605543,99.3976829 99.0670931,102.267149 C110.960791,108.789802 120.913003,118.351749 127.908942,129.977993 C136.299231,144.768071 137.299499,162.631722 130.612865,178.267009 Z" id="Path" stroke="#FFFFFF" stroke-width="3" fill="#0062AE"></path>
                <path d="M361,211 L292.04211,211 L292.04211,206.573418 C294.254825,206.135066 296.424878,205.504195 298.527435,204.688022 C300.721012,203.746492 302.724062,202.413061 304.438111,200.753283 C306.333595,198.785986 307.788684,196.438863 308.706933,193.867489 C309.898012,190.302908 310.453716,186.557338 310.348788,182.801035 L310.348788,119.51731 C310.159524,117.161673 310.798144,114.813795 312.154828,112.877437 C313.083994,111.520159 314.613281,110.695541 316.259464,110.664146 L316.259464,109.188619 L212.740536,109.188619 L212.740536,110.664146 C214.417593,110.732276 215.953195,111.621633 216.845172,113.041385 C218.120459,114.953812 218.753008,117.221948 218.651212,119.51731 L218.651212,183.12893 C218.557498,186.777283 219.113416,190.413261 220.293067,193.867489 C221.202082,196.443289 222.658322,198.792266 224.561889,200.753283 C226.220952,202.479854 228.238392,203.822865 230.472565,204.688022 C232.549104,205.578638 234.727109,206.211822 236.95789,206.573418 L236.95789,211 L168,211 L168,206.573418 C170.212715,206.135066 172.382768,205.504195 174.485325,204.688022 C176.678902,203.746492 178.681952,202.413061 180.396002,200.753283 C182.291485,198.785986 183.746574,196.438863 184.664823,193.867489 C185.855902,190.302908 186.411606,186.557338 186.306678,182.801035 L186.306678,33.1989654 C186.39249,29.4974843 185.837031,25.8090378 184.664823,22.2964584 C183.774809,19.663323 182.317685,17.2569574 180.396002,15.2467171 C178.736938,13.5201459 176.719499,12.1771353 174.485325,11.3119777 C172.408787,10.4213614 170.230782,9.78817794 168,9.42658178 L168,5 L236.95789,5 L236.95789,9.42658178 C234.745175,9.86493388 232.575122,10.4958058 230.472565,11.3119777 C228.278989,12.2535083 226.275939,13.5869396 224.561889,15.2467171 C222.629339,17.2486357 221.170654,19.6575795 220.293067,22.2964584 C219.120859,25.8090378 218.565401,29.4974843 218.651212,33.1989654 L218.651212,82.3832073 C218.651212,88.2853163 216.680987,91.2363708 212.740536,91.2363708 L212.740536,92.7118981 L315.931093,92.7118981 L315.931093,91.2363708 C314.28491,91.2049765 312.755623,90.3803584 311.826457,89.0230799 C310.505778,87.0700712 309.870645,84.7350182 310.020417,82.3832073 L310.020417,33.1989654 C310.106229,29.4974843 309.55077,25.8090378 308.378562,22.2964584 C307.488547,19.663323 306.031424,17.2569574 304.109741,15.2467171 C302.450677,13.5201459 300.433237,12.1771353 298.199064,11.3119777 C296.122525,10.4213614 293.944521,9.78817794 291.713739,9.42658178 L291.713739,5 L361,5 L361,9.42658178 C358.787285,9.86493388 356.617232,10.4958058 354.514675,11.3119777 C352.321099,12.2535083 350.318048,13.5869396 348.603998,15.2467171 C346.671448,17.2486357 345.212763,19.6575795 344.335177,22.2964584 C343.162969,25.8090378 342.60751,29.4974843 342.693322,33.1989654 L342.693322,183.046956 C342.599608,186.695309 343.155525,190.331287 344.335177,193.785515 C345.244192,196.361315 346.700431,198.710292 348.603998,200.671309 C350.263062,202.39788 352.280502,203.740891 354.514675,204.606049 C356.591214,205.496665 358.769219,206.129848 361,206.491444 L361,211 Z" id="Path" stroke="#FFFFFF" stroke-width="3" fill="#0062AE"></path>
                <path d="M464,211 L395,211 L395,206.573418 C397.214066,206.135066 399.385445,205.504195 401.489286,204.688022 C403.684202,203.746492 405.688475,202.413061 407.403571,200.753283 C409.300212,198.785986 410.75619,196.438863 411.675,193.867489 C412.866806,190.302908 413.42285,186.557338 413.317857,182.801035 L413.317857,33.1989654 C413.403722,29.4974843 412.847924,25.8090378 411.675,22.2964584 C410.784442,19.663323 409.326428,17.2569574 407.403571,15.2467171 C405.731936,13.5339774 403.716475,12.1931037 401.489286,11.3119777 C399.411479,10.4213614 397.232144,9.78817794 395,9.42658178 L395,5 L464,5 L464,9.42658178 C461.785934,9.86493388 459.614555,10.4958058 457.510714,11.3119777 C455.315799,12.2535083 453.311525,13.5869396 451.596429,15.2467171 C449.662699,17.2486357 448.203123,19.6575795 447.325,22.2964584 C446.152076,25.8090378 445.596279,29.4974843 445.682143,33.1989654 L445.682143,183.046956 C445.588372,186.695309 446.144629,190.331287 447.325,193.785515 C448.23457,196.361315 449.691699,198.710292 451.596429,200.671309 C453.268065,202.384049 455.283525,203.724923 457.510714,204.606049 C459.588522,205.496665 461.767857,206.129848 464,206.491444 L464,211 Z" id="Path" stroke="#FFFFFF" stroke-width="3" fill="#0062AE"></path>
                <path d="M692.58893,9.42482101 C686.38325,10.6818078 680.673671,13.6978374 676.146113,18.1105808 C672.548418,22.3182402 669.76122,27.1518656 667.924705,32.3683373 L601.495726,211 L582.750916,211 L513.773301,29.1726333 C512.086658,24.1093517 509.078905,19.5844213 505.058608,16.0620525 C500.884844,12.8663258 496.101247,10.5521713 491,9.26093875 L491,5 L557.428978,5 L557.428978,9.42482101 C553.704904,9.32698298 550.115864,10.8174513 547.563289,13.5218775 C545.343508,16.0620525 545.261294,19.9952267 547.563289,25.3214002 L602.482295,172.815434 L603.38665,169.865553 C602.623363,167.940011 602.313958,165.865476 602.482295,163.801909 C602.780511,161.518004 603.388991,159.285132 604.291005,157.164678 L652.7151,26.0588703 C654.794078,22.5743464 654.794078,18.2355184 652.7151,14.7509944 C650.084763,11.7790629 646.46303,9.85776582 642.520554,9.34287988 L642.520554,5 L693,5 L693,9.42482101 L692.58893,9.42482101 Z" id="Path" stroke="#FFFFFF" stroke-width="3" fill="#0062AE"></path>
                <path d="M980.57639,4.60274658 C974.809924,5.2780093 969.552934,8.23550145 965.977328,12.8159282 C963.490632,16.8317178 962.209474,21.4788445 962.286554,26.2034142 L962.286554,211 L818.592416,33.431014 L818.592416,36.3877594 C819.982503,37.9413335 820.993259,39.7969861 821.545038,41.8084592 C822.230898,44.7688406 822.534108,47.8051953 822.447227,50.842959 L822.447227,180.69336 C822.346928,185.609857 823.718009,190.443943 826.384052,194.573637 C829.976857,199.04329 835.267319,201.811269 840.983114,202.211896 L840.983114,206.647014 L788,206.647014 L788,202.211896 C793.766461,201.536633 799.023451,198.579141 802.599062,193.998714 C805.07063,190.006544 806.351185,185.390101 806.289836,180.69336 L806.289836,18.4830235 C804.022019,15.0058024 801.258916,11.8791327 798.088116,9.20212828 C795.169147,6.83738947 791.697694,5.2546815 788,4.60274658 L788,0.00336488903 L832.453325,0.00336488903 L950.230026,145.130284 L950.230026,141.845011 C948.758071,140.171482 947.641833,138.215335 946.949338,136.095784 C946.28257,133.410887 945.979123,130.648439 946.047148,127.882602 L946.047148,26.2034142 C946.147439,21.2869171 944.776366,16.4528307 942.110323,12.3231373 C938.51751,7.85348429 933.227056,5.08550488 927.511261,4.6848784 L927.511261,0.00336488903 L980.494373,0.00336488903 L980.494373,4.60274658 L980.57639,4.60274658 Z M1196.03558,206.647014 L1129.76568,206.647014 L1129.76568,202.211896 C1132.61229,201.877552 1135.38382,201.072687 1137.9674,199.830073 C1140.604,198.365819 1142.07036,195.42899 1141.65817,192.43821 C1141.5388,190.392076 1141.03807,188.386387 1140.18186,186.524719 L1124.27053,147.019315 C1123.39691,145.694096 1123.22712,144.024346 1123.81604,142.549987 C1124.40496,141.075628 1125.67786,139.983763 1127.22314,139.627452 L1126.64902,137.820552 L1038.23448,137.820552 L1038.23448,139.298925 C1041.1871,140.695166 1041.84324,143.241252 1040.28491,146.937184 L1025.02971,185.539137 C1024.66704,186.448744 1024.36564,187.381661 1024.12752,188.331619 C1024.04239,189.260494 1024.04239,190.195226 1024.12752,191.124101 C1023.87871,194.130425 1025.29568,197.031388 1027.8183,198.680228 C1030.29762,200.344768 1033.08741,201.49018 1036.02002,202.047632 L1036.02002,206.48275 L984.841284,206.48275 L984.841284,202.047632 C990.48082,200.879298 995.713886,198.244948 1000.01447,194.409373 C1004.11109,190.60772 1007.2818,185.915265 1009.28241,180.69336 L1073.17381,19.6328689 C1071.64888,15.5468808 1069.2077,11.8659417 1066.03831,8.87360102 C1062.85454,6.46107224 1059.09212,4.93133462 1055.13003,4.43848295 L1055.13003,0.00336488903 L1099.3373,0.00336488903 L1173.80891,182.582392 C1175.50179,187.319356 1178.31605,191.574818 1182.01063,194.984296 C1186.04249,198.257114 1190.70532,200.661686 1195.70751,202.047632 L1195.70751,206.647014 L1196.03558,206.647014 Z M1119.18546,120.244343 L1118.61134,118.765971 C1116.74094,118.440688 1114.93866,117.802067 1113.28022,116.876939 C1111.60297,115.554783 1110.37185,113.748528 1109.75348,111.702635 L1079.73519,35.648573 L1078.833,37.7018684 C1080.71758,41.6204503 1080.71758,46.1851908 1078.833,50.1037726 L1054.22784,111.702635 C1053.11294,115.152154 1050.33809,117.807386 1046.84629,118.765971 L1046.27217,120.244343 L1119.18546,120.244343 Z M1409.7724,103.407321 C1410.12638,131.35322 1398.76129,158.167046 1378.44183,177.325955 C1368.53903,186.606632 1356.95894,193.910053 1344.32268,198.844491 C1330.94692,204.092332 1316.69527,206.740378 1302.32987,206.647014 L1218.0982,206.647014 L1218.0982,202.211896 C1220.30888,201.772698 1222.47694,201.14061 1224.57756,200.322864 C1226.76912,199.379518 1228.77032,198.043515 1230.4828,196.380537 C1232.34854,194.387827 1233.79849,192.042347 1234.74769,189.481464 C1235.93767,185.910009 1236.49287,182.157217 1236.38804,178.393669 L1236.38804,28.2567096 C1236.47377,24.5480905 1235.91882,20.8525311 1234.74769,17.3331781 C1233.8585,14.6949648 1232.40272,12.2839588 1230.4828,10.2698419 C1228.81714,8.56960226 1226.80216,7.25243568 1224.57756,6.40964653 C1222.47499,5.61784327 1220.30681,5.01320267 1218.0982,4.60274658 L1218.0982,0.00336488903 L1302.32987,0.00336488903 C1316.7218,0.0406692345 1330.97439,2.82826717 1344.32268,8.21654649 C1356.95894,13.1509847 1368.53903,20.4544054 1378.44183,29.7350823 C1388.25356,39.0034556 1396.06863,50.1834564 1401.40665,62.5878087 C1406.97736,75.5517442 1409.77139,89.5414304 1409.60837,103.653717 L1409.7724,103.407321 Z M1373.27475,103.407321 C1373.40729,91.4869656 1371.20604,79.6561124 1366.79539,68.5834312 C1362.64537,58.3330193 1356.54495,48.9882893 1348.83362,41.0692729 C1341.04148,33.2023515 1331.71713,27.024026 1321.43988,22.9181415 C1310.38502,18.4931026 1298.56904,16.2884626 1286.66458,16.4297281 L1262.87959,16.4297281 L1262.87959,17.9081008 C1264.52426,17.9395555 1266.05214,18.7657637 1266.98045,20.1256598 C1268.29991,22.0824345 1268.93447,24.4219905 1268.78483,26.7783369 L1268.78483,180.036305 C1268.97392,182.396485 1268.33589,184.74889 1266.98045,186.688982 C1266.05214,188.048878 1264.52426,188.875087 1262.87959,188.906542 L1262.87959,190.384914 L1286.7466,190.384914 C1298.65032,190.517647 1310.46466,188.313313 1321.52189,183.896501 C1331.79915,179.790616 1341.1235,173.612291 1348.91564,165.745369 C1356.65245,157.815403 1362.75561,148.43856 1366.87741,138.149079 C1371.30016,127.108591 1373.50207,115.302137 1373.35676,103.407321 L1373.27475,103.407321 Z M1631.13683,206.647014 L1564.86693,206.647014 L1564.86693,202.211896 C1567.71354,201.877552 1570.48507,201.072687 1573.06865,199.830073 C1575.70525,198.365819 1577.17161,195.42899 1576.75942,192.43821 C1576.64005,190.392076 1576.13932,188.386387 1575.28311,186.524719 L1559.37178,147.019315 C1558.49816,145.694096 1558.32837,144.024346 1558.91729,142.549987 C1559.50621,141.075628 1560.77911,139.983763 1562.32439,139.627452 L1561.75027,137.820552 L1473.33573,137.820552 L1473.33573,139.298925 C1476.28835,140.695166 1476.94449,143.241252 1475.38616,146.937184 L1459.72088,185.539137 C1459.3582,186.448744 1459.0568,187.381661 1458.81869,188.331619 C1458.73355,189.260494 1458.73355,190.195226 1458.81869,191.124101 C1458.56987,194.130425 1459.98684,197.031388 1462.50946,198.680228 C1464.98878,200.344768 1467.77857,201.49018 1470.71118,202.047632 L1470.71118,206.48275 L1420.35262,206.48275 L1420.35262,202.047632 C1425.99216,200.879298 1431.22522,198.244948 1435.5258,194.409373 C1439.47391,190.56509 1442.50214,185.875993 1444.38366,180.69336 L1508.27506,19.6328689 C1506.75194,15.613688 1504.3406,11.9916223 1501.22158,9.03786465 C1498.03781,6.62533588 1494.27539,5.09559825 1490.31329,4.60274658 L1490.31329,0.00336488903 L1534.52056,0.00336488903 L1608.99218,182.582392 C1610.68506,187.319356 1613.49931,191.574818 1617.1939,194.984296 C1621.22576,198.257114 1625.88859,200.661686 1630.89077,202.047632 L1630.89077,206.647014 L1631.13683,206.647014 Z M1554.28671,120.244343 L1553.71259,118.765971 C1551.84219,118.440688 1550.03991,117.802067 1548.38147,116.876939 C1546.70422,115.554783 1545.4731,113.748528 1544.85473,111.702635 L1514.83644,35.648573 L1513.93425,37.7018684 C1515.77201,41.631021 1515.77201,46.1746201 1513.93425,50.1037726 L1489.32909,111.702635 C1488.21419,115.152154 1485.43934,117.807386 1481.94754,118.765971 L1481.37342,120.244343 L1554.28671,120.244343 Z M1837,206.647014 C1831.28813,209.346563 1825.02417,210.668615 1818.71016,210.507209 C1804.64531,211.369169 1791.83838,202.422404 1787.78968,188.906542 C1785.24715,181.59681 1782.70461,174.36921 1780.2441,167.059478 C1777.78358,159.749747 1775.56912,153.261333 1773.6007,147.594238 C1771.4394,141.03548 1768.31591,134.835128 1764.33276,129.196711 C1761.26152,124.936155 1757.42297,121.287222 1753.01439,118.437443 C1748.91433,115.902989 1744.38202,114.148789 1739.64558,113.263139 C1734.6395,112.354791 1729.55988,111.914858 1724.4724,111.94903 L1697.57076,111.94903 L1697.57076,113.427403 C1699.21543,113.458857 1700.74331,114.285066 1701.67162,115.644962 C1702.95657,117.614331 1703.56157,119.951155 1703.39398,122.297639 L1703.39398,178.640065 C1703.3104,183.989458 1704.58008,189.273031 1707.08475,193.998714 C1710.3777,198.897107 1715.79322,201.94379 1721.68382,202.211896 L1721.68382,206.647014 L1652.78937,206.647014 L1652.78937,202.211896 C1655.00004,201.772698 1657.1681,201.14061 1659.26873,200.322864 C1661.46028,199.379518 1663.46149,198.043515 1665.17396,196.380537 C1667.0677,194.409446 1668.52146,192.057797 1669.43886,189.481464 C1670.62884,185.910009 1671.18403,182.157217 1671.0792,178.393669 L1671.0792,28.503105 C1671.21396,24.5365868 1670.60184,20.580116 1669.27482,16.8403872 C1668.30637,14.1158197 1666.73638,11.6452473 1664.68186,9.61278736 C1662.98725,7.90712131 1660.90454,6.63883794 1658.61259,5.91685564 C1656.69384,5.27918003 1654.71521,4.83887143 1652.70735,4.60274658 L1652.70735,0.00106758699 L1754.9828,0.00106758699 C1763.06429,-0.0441333953 1771.08995,1.34633022 1778.68577,4.10995569 C1785.79451,6.73081836 1792.33682,10.6895672 1797.95981,15.7726736 C1803.46022,20.7930772 1807.91933,26.8491996 1811.08256,33.5952776 C1814.40541,40.7978429 1816.05962,48.6593417 1815.92158,56.5921861 C1815.88303,62.169189 1814.99807,67.7079171 1813.29703,73.0185493 C1811.41709,78.5766861 1808.64702,83.7916793 1805.09531,88.4593306 C1801.43646,93.418747 1796.93981,97.6993069 1791.80852,101.10763 C1786.22541,104.871918 1780.0392,107.649879 1773.51869,109.320812 C1780.3753,111.702128 1786.62108,115.572631 1791.80852,120.655002 C1797.63305,126.68249 1801.95982,133.997641 1804.43917,142.009275 C1805.58741,145.540943 1807.06372,149.565402 1808.70407,154.082652 C1810.34441,158.599901 1811.90274,163.117151 1813.37905,167.470138 C1814.85536,171.823124 1816.24965,175.683319 1817.64394,179.707778 C1819.03823,183.732237 1820.02244,186.278323 1820.59656,187.92096 C1821.99477,192.184366 1824.48308,196.006993 1827.81407,199.008755 C1830.24839,201.181881 1833.54197,202.119897 1836.75395,201.554841 L1836.75395,206.154223 L1837,206.647014 Z M1779.58796,56.5100543 C1779.64362,50.857695 1778.49732,45.2581988 1776.22525,40.0836911 C1774.00359,35.2508146 1770.78976,30.9410618 1766.79328,27.4353914 C1762.65908,23.8189662 1757.87012,21.0307982 1752.68632,19.2222098 C1746.90479,17.2605842 1740.82785,16.3158134 1734.72455,16.4297281 L1698.2269,16.4297281 L1698.2269,17.9081008 C1699.82829,17.9364768 1701.30792,18.769933 1702.16372,20.1256598 C1703.38285,22.1206192 1703.95583,24.444411 1703.80407,26.7783369 L1703.80407,86.6524306 C1703.97166,88.9989145 1703.36666,91.3357387 1702.0817,93.3051077 C1701.15339,94.6650036 1699.62551,95.4912119 1697.98084,95.5226668 L1697.98084,97.001742 L1734.80657,97.001742 C1740.64892,97.0218287 1746.45916,96.1352215 1752.03018,94.3728213 C1757.23444,92.6090644 1762.03172,89.8160521 1766.13714,86.1596397 C1770.14907,82.7913466 1773.41703,78.6237638 1775.73315,73.9219993 C1778.24167,68.4591475 1779.55593,62.5227091 1779.58796,56.5100543 L1779.58796,56.5100543 Z" id="Shape" stroke="#FFFFFF" stroke-width="3" fill="#0062AE"></path>
                <path d="M764.19454,499.64764 L758.283114,493.713571 C754.41943,497.962231 748.949438,500.434627 743.176137,500.541815 C733.295949,499.89433 725.616288,491.770942 725.616288,481.967366 C725.616288,472.16379 733.295949,464.040402 743.176137,463.392917 C748.779155,463.531298 754.096357,465.871055 757.954701,469.896006 L763.866127,463.149051 C758.465586,457.678075 750.97908,454.724993 743.25824,455.020189 C728.203931,455.020189 716,467.103048 716,482.00801 C716,496.912973 728.203931,508.995831 743.25824,508.995831 C751.3919,509.136406 759.173559,505.715507 764.522952,499.64764 L764.19454,499.64764 Z M816.986855,485.991153 L816.986855,508.020368 L826.264511,508.020368 L826.264511,455.833075 L816.986855,455.833075 L816.986855,477.537136 L791.863296,477.537136 L791.863296,455.833075 L782.585642,455.833075 L782.585642,508.020368 L791.863296,508.020368 L791.863296,485.991153 L816.986855,485.991153 Z M887.595552,455.751787 L848.514461,455.751787 L848.514461,507.939079 L888.006068,507.939079 L888.006068,499.810218 L857.792115,499.810218 L857.792115,485.665998 L884.229324,485.665998 L884.229324,477.537136 L857.792115,477.537136 L857.792115,463.880648 L887.595552,463.880648 L887.595552,455.751787 L887.595552,455.751787 Z M944.493024,491.843933 L916.249546,455.751787 L908.039233,455.751787 L908.039233,507.939079 L917.152681,507.939079 L917.152681,470.790181 L946.21719,507.939079 L953.934885,507.939079 L953.934885,455.751787 L944.821437,455.751787 L944.821437,491.843933 L944.493024,491.843933 Z M1012.63863,491.843933 L984.72356,455.751787 L976.513247,455.751787 L976.513247,507.939079 L984.72356,507.939079 L984.72356,470.790181 L1013.78807,507.939079 L1021.50576,507.939079 L1021.50576,455.751787 L1012.39232,455.751787 L1012.39232,491.843933 L1012.63863,491.843933 Z M1071.26026,455.426632 L1063.04995,455.426632 L1039.81476,508.020368 L1049.33873,508.020368 L1054.75753,495.420632 L1079.38847,495.420632 L1084.72518,508.020368 L1094.49545,508.020368 L1071.34237,455.426632 L1071.26026,455.426632 Z M1075.94014,487.29177 L1057.79535,487.29177 L1066.82669,466.400596 L1075.94014,487.29177 L1075.94014,487.29177 Z M1112.72235,455.751787 L1112.72235,507.939079 L1122,507.939079 L1122,455.751787 L1112.72235,455.751787 Z" id="Shape" fill="#FFFFFF"></path>
                <path d="M334,340.15711 L0,340.15711 C46.3319421,337.03711 199.350356,332.79711 331.539897,334.07711 C332.359931,335.67711 333.179966,338.55711 334,340.15711 Z" id="Path" stroke="#FFFFFF" fill="#0062AE"></path>
                <path d="M334,342.84289 L0,342.84289 C46.3319421,345.96289 199.350356,350.20289 331.539897,348.92289 C332.359931,347.32289 333.179966,344.12289 334,342.84289 Z" id="Path" stroke="#FFFFFF" fill="#0062AE"></path>
                <polygon id="Path" stroke="#FFFFFF" fill="#0062AE" points="333.1625 332 338.76875 342 333 352 346 341.596774"></polygon>
                <path d="M458.735016,297.407542 L448.728706,297.407542 L448.728706,348.659638 C448.728706,367.950697 438.394322,377.759711 422.072555,377.759711 C405.750789,377.759711 395.006309,367.051538 395.006309,348.005703 L395.006309,297.407542 L385,297.407542 L385,348.659638 C385,373.182171 399.927445,386.91479 421.744479,386.91479 C443.561514,386.91479 458.652997,373.59088 458.652997,347.84222 L458.652997,297.407542 L458.735016,297.407542 Z M582.25552,368.114181 L526.48265,297.489284 L517.132492,297.489284 L517.132492,385.52518 L526.892744,385.52518 L526.892744,313.347189 L584.305993,385.688663 L592.507886,385.688663 L592.507886,297.489284 L582.25552,297.489284 L582.25552,368.114181 Z M652.709779,297.407542 L652.709779,385.52518 L662.716088,385.52518 L662.716088,297.407542 L652.709779,297.407542 Z M758.432176,373.345655 L726.936908,297.407542 L715.782334,297.407542 L753.839116,386.179114 L762.69716,386.179114 L800.753942,297.407542 L790.009463,297.407542 L758.432176,373.345655 Z M916.974765,297.407542 L853.410096,297.407542 L853.410096,385.52518 L918.041011,385.52518 L918.041011,376.533584 L863.416405,376.533584 L863.416405,345.635192 L911.725553,345.635192 L911.725553,336.480112 L863.416405,336.480112 L863.416405,306.480879 L917.384859,306.480879 L917.384859,297.407542 L916.974765,297.407542 Z M1045.66246,385.52518 L1018.5142,349.477055 C1032.06818,348.451411 1042.54187,337.193716 1042.54574,323.646653 C1042.54574,307.788748 1029.99685,297.3258 1010.55836,297.3258 L972.501578,297.3258 L972.501578,385.52518 L982.507888,385.52518 L982.507888,351.357116 L1007.76972,351.357116 L1033.85174,385.52518 L1045.66246,385.52518 Z M1032.3754,324.055362 C1032.3754,335.499211 1022.8612,342.283779 1009.65615,342.283779 L982.507888,342.283779 L982.507888,306.562621 L1009.82019,306.562621 C1024.00946,306.562621 1032.3754,313.183705 1032.3754,324.137104 L1032.3754,324.055362 Z M1106.19243,319.396081 C1106.19243,311.221903 1113.49211,305.009527 1125.05678,305.009527 C1134.44286,305.003269 1143.51016,308.402916 1150.56467,314.573316 L1156.38801,306.889588 C1147.7238,299.573209 1136.65454,295.701874 1125.30284,296.017932 C1108.89905,296.017932 1096.26814,306.072171 1096.26814,320.540466 C1096.26814,335.00876 1105.6183,341.711586 1125.95899,346.125642 C1144.49527,350.049248 1148.92429,354.708529 1148.92429,362.964449 C1148.92429,371.220369 1140.7224,378.086678 1129.23975,378.086678 C1117.84191,378.186536 1106.89109,373.673528 1098.89275,365.580186 L1092.65931,372.855204 C1102.411,382.079155 1115.38605,387.151938 1128.82965,386.996532 C1146.3817,386.996532 1159.01262,377.187518 1159.01262,361.901806 C1159.01262,348.33267 1149.90852,341.139394 1130.22398,336.80708 C1110.53943,332.474765 1106.19243,328.142451 1106.19243,319.723048 L1106.19243,319.396081 Z M1215.03155,297.3258 L1215.03155,385.52518 L1225.03786,385.52518 L1225.03786,297.407542 L1215.03155,297.3258 Z M1319.2776,306.562621 L1348.96845,306.562621 L1348.96845,297.489284 L1279.90852,297.489284 L1279.90852,306.644363 L1309.59937,306.644363 L1309.59937,385.52518 L1319.6877,385.52518 L1319.6877,306.644363 L1319.2776,306.562621 Z M1440.25552,350.457957 L1477,297.3258 L1465.35331,297.3258 L1435.74448,341.466361 L1405.88959,297.407542 L1393.75079,297.407542 L1430.49527,350.703182 L1430.49527,385.52518 L1440.5836,385.52518 L1440.5836,350.539698 L1440.25552,350.457957 Z" id="Shape" stroke="#FFFFFF" stroke-width="2" fill="#0062AE"></path>
                <path d="M1505,340.15711 L1839,340.15711 C1792.65668,337.03711 1639.60069,332.79711 1507.37868,334.07711 C1506.55845,335.67711 1505.73821,338.55711 1505,340.15711 Z" id="Path" stroke="#FFFFFF" fill="#0062AE"></path>
                <path d="M1505,342.84289 L1839,342.84289 C1792.65668,345.96289 1639.60069,350.20289 1507.37868,348.92289 C1506.55845,347.32289 1505.73821,344.12289 1505,342.84289 Z" id="Path" stroke="#FFFFFF" fill="#0062AE"></path>
                <polygon id="Path" stroke="#FFFFFF" fill="#0062AE" points="1506.83851 332 1501.18634 342 1507 352 1494 341.596774"></polygon>
            </g>
        </g>
    </g>
</svg>