<?xml version="1.0" encoding="UTF-8"?>
<svg width="225px" height="63px" viewBox="0 0 225 63" version="1.1" xmlns="http://www.w3.org/2000/svg" xmlns:xlink="http://www.w3.org/1999/xlink">
    <title>snu</title>
    <g id="Page-1" stroke="none" stroke-width="1" fill="none" fill-rule="evenodd">
        <g id="Artboard" transform="translate(-2196.000000, -1610.000000)">
            <g id="snu" transform="translate(2196.000000, 1610.000000)">
                <path d="M15.9406317,21.7702797 C15.6079404,22.6158891 15.0922848,23.3774202 14.4306317,24.0002797 C11.4306317,26.7202797 5.55063172,25.9002797 0.530631722,25.8602797 L0.470631722,19.8602797 L1.19063172,19.8602797 C1.19063172,23.4202797 7.69063172,26.0202797 11.2706317,22.6602797 C13.8106317,20.2702797 12.1506317,17.1002797 9.05063172,15.3102797 L3.88063172,12.3102797 C2.66723777,11.6982449 1.63351997,10.7816818 0.880631722,9.65027971 C0.296465732,8.6674432 -0.00784063535,7.54358445 0.000631721966,6.40027971 C-0.0124873045,5.48947342 0.178877512,4.587325 0.560631722,3.76027971 C3.00063172,-1.29972029 10.2906317,0.140279709 14.7706317,0.460279709 L14.7706317,5.62027971 L14.0506317,5.62027971 C14.0006317,2.72027971 10.3206317,1.26027971 7.48063172,1.87027971 C4.64063172,2.48027971 3.14063172,5.29027971 4.77063172,7.69027971 C5.30643055,8.40022417 5.98848267,8.98678899 6.77063172,9.41027971 L9.77063172,11.1502797 C10.7706317,11.7102797 11.5406317,12.1502797 12.0906317,12.5002797 C13.5421966,13.2958732 14.7568132,14.4621812 15.6106317,15.8802797 C16.6346236,17.6842833 16.7567012,19.8631827 15.9406317,21.7702797 Z" id="Path" fill="#0062AE"></path>
                <path d="M44.0006317,25.7902797 L35.6006317,25.7902797 L35.6006317,25.2502797 C35.8701702,25.196805 36.1345119,25.1198448 36.3906317,25.0202797 C36.6578389,24.9054221 36.9018374,24.7427565 37.1106317,24.5402797 C37.3415271,24.3002886 37.5187766,24.0139624 37.6306317,23.7002797 C37.7757211,23.2654354 37.8434134,22.8085123 37.8306317,22.3502797 L37.8306317,14.6302797 C37.8075768,14.3429149 37.8853694,14.0564966 38.0506317,13.8202797 C38.1638167,13.6547049 38.3501044,13.5541095 38.5506317,13.5502797 L38.5506317,13.3702797 L25.9406317,13.3702797 L25.9406317,13.5502797 C26.1449199,13.5585908 26.3319768,13.6670838 26.4406317,13.8402797 C26.5959788,14.0735773 26.6730318,14.3502678 26.6606317,14.6302797 L26.6606317,22.3902797 C26.6492161,22.8353434 26.7169343,23.2788974 26.8606317,23.7002797 C26.971362,24.0145023 27.1487516,24.3010547 27.3806317,24.5402797 C27.582728,24.7509046 27.8284794,24.9147389 28.1006317,25.0202797 C28.3535822,25.1289262 28.6188925,25.2061685 28.8906317,25.2502797 L28.8906317,25.7902797 L20.4906317,25.7902797 L20.4906317,25.2502797 C20.7601702,25.196805 21.0245119,25.1198448 21.2806317,25.0202797 C21.5478389,24.9054221 21.7918374,24.7427565 22.0006317,24.5402797 C22.2315271,24.3002886 22.4087766,24.0139624 22.5206317,23.7002797 C22.6657211,23.2654354 22.7334134,22.8085123 22.7206317,22.3502797 L22.7206317,4.10027971 C22.7310848,3.64873495 22.6634224,3.19878029 22.5206317,2.77027971 C22.4122159,2.44906275 22.2347186,2.15550951 22.0006317,1.91027971 C21.7985354,1.69965479 21.5527841,1.53582053 21.2806317,1.43027971 C21.0276813,1.32163317 20.762371,1.24439093 20.4906317,1.20027971 L20.4906317,0.660279709 L28.8906317,0.660279709 L28.8906317,1.20027971 C28.6210932,1.25375441 28.3567515,1.33071466 28.1006317,1.43027971 C27.8334246,1.5451373 27.5894261,1.70780297 27.3806317,1.91027971 C27.1452211,2.15449434 26.9675336,2.4483621 26.8606317,2.77027971 C26.717841,3.19878029 26.6501787,3.64873495 26.6606317,4.10027971 L26.6606317,10.1002797 C26.6606317,10.8202797 26.4206317,11.1802797 25.9406317,11.1802797 L25.9406317,11.3602797 L38.5106317,11.3602797 L38.5106317,11.1802797 C38.3101044,11.1764499 38.1238167,11.0758545 38.0106317,10.9102797 C37.8497552,10.6720316 37.7723875,10.3871778 37.7906317,10.1002797 L37.7906317,4.10027971 C37.8010848,3.64873495 37.7334224,3.19878029 37.5906317,2.77027971 C37.4822159,2.44906275 37.3047186,2.15550951 37.0706317,1.91027971 C36.8685354,1.69965479 36.6227841,1.53582053 36.3506317,1.43027971 C36.0976813,1.32163317 35.832371,1.24439093 35.5606317,1.20027971 L35.5606317,0.660279709 L44.0006317,0.660279709 L44.0006317,1.20027971 C43.7310932,1.25375441 43.4667515,1.33071466 43.2106317,1.43027971 C42.9434246,1.5451373 42.6994261,1.70780297 42.4906317,1.91027971 C42.2552211,2.15449434 42.0775336,2.4483621 41.9706317,2.77027971 C41.827841,3.19878029 41.7601787,3.64873495 41.7706317,4.10027971 L41.7706317,22.3802797 C41.7592161,22.8253434 41.8269343,23.2688974 41.9706317,23.6902797 C42.081362,24.0045023 42.2587516,24.2910547 42.4906317,24.5302797 C42.692728,24.7409046 42.9384794,24.9047389 43.2106317,25.0102797 C43.4635822,25.1189262 43.7288925,25.1961685 44.0006317,25.2402797 L44.0006317,25.7902797 Z" id="Path" fill="#0062AE"></path>
                <path d="M56.5506317,25.7902797 L48.1506317,25.7902797 L48.1506317,25.2502797 C48.4201702,25.196805 48.6845119,25.1198448 48.9406317,25.0202797 C49.2078389,24.9054221 49.4518374,24.7427565 49.6606317,24.5402797 C49.8915271,24.3002886 50.0687766,24.0139624 50.1806317,23.7002797 C50.3257211,23.2654354 50.3934134,22.8085123 50.3806317,22.3502797 L50.3806317,4.10027971 C50.3910848,3.64873495 50.3234224,3.19878029 50.1806317,2.77027971 C50.0722159,2.44906275 49.8947186,2.15550951 49.6606317,1.91027971 C49.4571282,1.7013421 49.2117678,1.53776853 48.9406317,1.43027971 C48.6876813,1.32163317 48.422371,1.24439093 48.1506317,1.20027971 L48.1506317,0.660279709 L56.5506317,0.660279709 L56.5506317,1.20027971 C56.2810932,1.25375441 56.0167515,1.33071466 55.7606317,1.43027971 C55.4934246,1.5451373 55.2494261,1.70780297 55.0406317,1.91027971 C54.8052211,2.15449434 54.6275336,2.4483621 54.5206317,2.77027971 C54.377841,3.19878029 54.3101787,3.64873495 54.3206317,4.10027971 L54.3206317,22.3802797 C54.3092161,22.8253434 54.3769343,23.2688974 54.5206317,23.6902797 C54.631362,24.0045023 54.8087516,24.2910547 55.0406317,24.5302797 C55.2441353,24.7392173 55.4894956,24.9027909 55.7606317,25.0102797 C56.0135822,25.1189262 56.2788925,25.1961685 56.5506317,25.2402797 L56.5506317,25.7902797 Z" id="Path" fill="#0062AE"></path>
                <path d="M84.3606317,1.19027971 C83.6058121,1.34368091 82.9113352,1.71175365 82.3606317,2.25027971 C81.9230309,2.76377756 81.5840137,3.35366758 81.3606317,3.99027971 L73.2806317,25.7902797 L71.0006317,25.7902797 L62.6106317,3.60027971 C62.4054791,2.98236273 62.0396352,2.43014549 61.5506317,2.00027971 C61.0429615,1.61027695 60.461115,1.32786022 59.8406317,1.17027971 L59.8406317,0.650279709 L67.9206317,0.650279709 L67.9206317,1.19027971 C67.4676589,1.17833967 67.0311108,1.36023469 66.7206317,1.69027971 C66.4506317,2.00027971 66.4406317,2.48027971 66.7206317,3.13027971 L73.4006317,21.1302797 L73.5106317,20.7702797 C73.4177902,20.5352888 73.3801562,20.282115 73.4006317,20.0302797 C73.4369048,19.7515546 73.5109164,19.4790575 73.6206317,19.2202797 L79.5106317,3.22027971 C79.7635054,2.79503247 79.7635054,2.26552695 79.5106317,1.84027971 C79.1906942,1.47758865 78.7501695,1.24311579 78.2706317,1.18027971 L78.2706317,0.650279709 L84.4106317,0.650279709 L84.4106317,1.19027971 L84.3606317,1.19027971 Z" id="Path" fill="#0062AE"></path>
                <path d="M119.580632,0.560279709 C118.877552,0.642496656 118.23659,1.00258758 117.800632,1.56027971 C117.49744,2.04922417 117.341234,2.61503738 117.350632,3.19027971 L117.350632,25.6902797 L99.8306317,4.07027971 L99.8306317,4.43027971 C100.000119,4.6194359 100.123356,4.8453718 100.190632,5.09027971 C100.274256,5.45072242 100.311225,5.82041529 100.300632,6.19027971 L100.300632,22.0002797 C100.288403,22.5988902 100.455573,23.1874668 100.780632,23.6902797 C101.218687,24.2344845 101.86373,24.5715012 102.560632,24.6202797 L102.560632,25.1602797 L96.1006317,25.1602797 L96.1006317,24.6202797 C96.8037112,24.5380628 97.4446731,24.1779718 97.8806317,23.6202797 C98.1819792,23.1342111 98.3381118,22.5721337 98.3306317,22.0002797 L98.3306317,2.25027971 C98.0541267,1.82690893 97.7172336,1.44621971 97.3306317,1.12027971 C96.9747346,0.832359762 96.5514754,0.639656369 96.1006317,0.560279709 L96.1006317,0.000279709149 L101.520632,0.000279709149 L115.880632,17.6702797 L115.880632,17.2702797 C115.701163,17.0665184 115.565065,16.8283467 115.480632,16.5702797 C115.399336,16.2433788 115.362338,15.9070355 115.370632,15.5702797 L115.370632,3.19027971 C115.38286,2.59166917 115.215691,2.00309258 114.890632,1.50027971 C114.452576,0.956074891 113.807534,0.619058185 113.110632,0.570279709 L113.110632,0.000279709149 L119.570632,0.000279709149 L119.570632,0.560279709 L119.580632,0.560279709 Z M145.850632,25.1602797 L137.770632,25.1602797 L137.770632,24.6202797 C138.117707,24.5795715 138.455627,24.4815748 138.770632,24.3302797 C139.092101,24.1519987 139.270888,23.7944237 139.220632,23.4302797 C139.206077,23.1811517 139.145026,22.936948 139.040632,22.7102797 L137.100632,17.9002797 C136.994116,17.738927 136.973414,17.5356257 137.045218,17.3561144 C137.117023,17.1766031 137.272222,17.0436625 137.460632,17.0002797 L137.390632,16.7802797 L126.610632,16.7802797 L126.610632,16.9602797 C126.970632,17.1302797 127.050632,17.4402797 126.860632,17.8902797 L125.000632,22.5902797 C124.956413,22.7010294 124.919664,22.8146171 124.890632,22.9302797 C124.880252,23.0433754 124.880252,23.1571841 124.890632,23.2702797 C124.860295,23.6363162 125.03306,23.9895244 125.340632,24.1902797 C125.642925,24.3929467 125.983072,24.5324069 126.340632,24.6002797 L126.340632,25.1402797 L120.100632,25.1402797 L120.100632,24.6002797 C120.788236,24.4580286 121.426281,24.137282 121.950632,23.6702797 C122.450116,23.2074075 122.836706,22.6360753 123.080632,22.0002797 L130.870632,2.39027971 C130.684704,1.8927882 130.387061,1.44461364 130.000632,1.08027971 C129.612449,0.786541072 129.153713,0.600287109 128.670632,0.540279709 L128.670632,0.000279709149 L134.060632,0.000279709149 L143.140632,22.2302797 C143.347037,22.8070311 143.690167,23.325157 144.140632,23.7402797 C144.632219,24.1387633 145.200737,24.4315332 145.810632,24.6002797 L145.810632,25.1602797 L145.850632,25.1602797 Z M136.480632,14.6402797 L136.410632,14.4602797 C136.182582,14.4206747 135.962838,14.3429191 135.760632,14.2302797 C135.556132,14.0693 135.406027,13.8493785 135.330632,13.6002797 L131.670632,4.34027971 L131.560632,4.59027971 C131.790411,5.06738859 131.790411,5.62317083 131.560632,6.10027971 L128.560632,13.6002797 C128.424697,14.0202777 128.086372,14.3435667 127.660632,14.4602797 L127.590632,14.6402797 L136.480632,14.6402797 Z M171.910632,12.5902797 C171.953791,15.9928465 170.568095,19.2575772 168.090632,21.5902797 C166.883227,22.7202531 165.471317,23.6094847 163.930632,24.2102797 C162.299785,24.8492332 160.562143,25.1716473 158.810632,25.1602797 L148.540632,25.1602797 L148.540632,24.6202797 C148.81017,24.566805 149.074512,24.4898448 149.330632,24.3902797 C149.597839,24.2754221 149.841837,24.1127565 150.050632,23.9102797 C150.278114,23.6676563 150.454899,23.3820813 150.570632,23.0702797 C150.715721,22.6354354 150.783413,22.1785123 150.770632,21.7202797 L150.770632,3.44027971 C150.781085,2.98873495 150.713422,2.53878029 150.570632,2.11027971 C150.462216,1.78906275 150.284719,1.49550951 150.050632,1.25027971 C149.847545,1.04326619 149.601868,0.88289392 149.330632,0.780279709 C149.074275,0.68387331 148.809918,0.610254994 148.540632,0.560279709 L148.540632,0.000279709149 L158.810632,0.000279709149 C160.565378,0.00482171824 162.303134,0.344227088 163.930632,1.00027971 C165.471317,1.60107468 166.883227,2.49030629 168.090632,3.62027971 C169.286933,4.7487551 170.239791,6.10998165 170.890632,7.62027971 C171.569845,9.19871011 171.910509,10.9020313 171.890632,12.6202797 L171.910632,12.5902797 Z M167.460632,12.5902797 C167.476793,11.1389109 167.208403,9.6984395 166.670632,8.35027971 C166.164638,7.10223572 165.420841,5.96446349 164.480632,5.00027971 C163.53057,4.04243879 162.393693,3.29019371 161.140632,2.79027971 C159.792762,2.2515069 158.352091,1.98307986 156.900632,2.00027971 L154.000632,2.00027971 L154.000632,2.18027971 C154.201159,2.18410949 154.387447,2.28470488 154.500632,2.45027971 C154.661508,2.68852778 154.738876,2.97338158 154.720632,3.26027971 L154.720632,21.9202797 C154.743687,22.2076445 154.665894,22.4940628 154.500632,22.7302797 C154.387447,22.8958545 154.201159,22.9964499 154.000632,23.0002797 L154.000632,23.1802797 L156.910632,23.1802797 C158.362001,23.1964406 159.802472,22.9280509 161.150632,22.3902797 C162.403693,21.8903657 163.54057,21.1381206 164.490632,20.1802797 C165.433948,19.2147627 166.17808,18.0730805 166.680632,16.8202797 C167.219879,15.4760396 167.488348,14.0385389 167.470632,12.5902797 L167.460632,12.5902797 Z M198.900632,25.1602797 L190.820632,25.1602797 L190.820632,24.6202797 C191.167707,24.5795715 191.505627,24.4815748 191.820632,24.3302797 C192.142101,24.1519987 192.320888,23.7944237 192.270632,23.4302797 C192.256077,23.1811517 192.195026,22.936948 192.090632,22.7102797 L190.150632,17.9002797 C190.044116,17.738927 190.023414,17.5356257 190.095218,17.3561144 C190.167023,17.1766031 190.322222,17.0436625 190.510632,17.0002797 L190.440632,16.7802797 L179.660632,16.7802797 L179.660632,16.9602797 C180.020632,17.1302797 180.100632,17.4402797 179.910632,17.8902797 L178.000632,22.5902797 C177.956413,22.7010294 177.919664,22.8146171 177.890632,22.9302797 C177.880252,23.0433754 177.880252,23.1571841 177.890632,23.2702797 C177.860295,23.6363162 178.03306,23.9895244 178.340632,24.1902797 C178.642925,24.3929467 178.983072,24.5324069 179.340632,24.6002797 L179.340632,25.1402797 L173.200632,25.1402797 L173.200632,24.6002797 C173.888236,24.4580286 174.526281,24.137282 175.050632,23.6702797 C175.532007,23.2022171 175.901227,22.6312938 176.130632,22.0002797 L183.920632,2.39027971 C183.734925,1.90092234 183.44092,1.45991594 183.060632,1.10027971 C182.672449,0.806541072 182.213713,0.620287109 181.730632,0.560279709 L181.730632,0.000279709149 L187.120632,0.000279709149 L196.200632,22.2302797 C196.407037,22.8070311 196.750167,23.325157 197.200632,23.7402797 C197.692219,24.1387633 198.260737,24.4315332 198.870632,24.6002797 L198.870632,25.1602797 L198.900632,25.1602797 Z M189.530632,14.6402797 L189.460632,14.4602797 C189.232582,14.4206747 189.012838,14.3429191 188.810632,14.2302797 C188.606132,14.0693 188.456027,13.8493785 188.380632,13.6002797 L184.720632,4.34027971 L184.610632,4.59027971 C184.834702,5.06867563 184.834702,5.62188379 184.610632,6.10027971 L181.610632,13.6002797 C181.474697,14.0202777 181.136372,14.3435667 180.710632,14.4602797 L180.640632,14.6402797 L189.530632,14.6402797 Z M224.000632,25.1602797 C223.304209,25.4889646 222.540471,25.6499317 221.770632,25.6302797 C220.055765,25.735228 218.494272,24.6459102 218.000632,23.0002797 C217.690632,22.1102797 217.380632,21.2302797 217.080632,20.3402797 C216.780632,19.4502797 216.510632,18.6602797 216.270632,17.9702797 C216.007114,17.1717149 215.62628,16.4167879 215.140632,15.7302797 C214.766169,15.2115335 214.298151,14.7672559 213.760632,14.4202797 C213.26073,14.1116959 212.708125,13.8981124 212.130632,13.7902797 C211.520262,13.6796833 210.900926,13.6261191 210.280632,13.6302797 L207.000632,13.6302797 L207.000632,13.8102797 C207.201159,13.8141095 207.387447,13.9147049 207.500632,14.0802797 C207.657301,14.3200612 207.731066,14.6045824 207.710632,14.8902797 L207.710632,21.7502797 C207.700442,22.4015978 207.855248,23.0449018 208.160632,23.6202797 C208.562126,24.216686 209.222417,24.5876363 209.940632,24.6202797 L209.940632,25.1602797 L201.540632,25.1602797 L201.540632,24.6202797 C201.81017,24.566805 202.074512,24.4898448 202.330632,24.3902797 C202.597839,24.2754221 202.841837,24.1127565 203.050632,23.9102797 C203.281527,23.6702886 203.458777,23.3839624 203.570632,23.0702797 C203.715721,22.6354354 203.783413,22.1785123 203.770632,21.7202797 L203.770632,3.47027971 C203.787062,2.98733432 203.712429,2.50561225 203.550632,2.05027971 C203.432553,1.71854865 203.241131,1.41774288 202.990632,1.17027971 C202.784016,0.962605493 202.53008,0.808185023 202.250632,0.720279709 C202.016687,0.642639199 201.775442,0.589029207 201.530632,0.560279709 L201.530632,0.000136402582 L214.000632,0.000136402582 C214.985973,-0.00550346802 215.964507,0.163793119 216.890632,0.500279709 C217.75737,0.819384144 218.555045,1.30138357 219.240632,1.92027971 C219.911273,2.53154144 220.454953,3.26890763 220.840632,4.09027971 C221.245772,4.96723162 221.447463,5.92441231 221.430632,6.89027971 C221.425932,7.56931047 221.318032,8.24368105 221.110632,8.89027971 C220.881419,9.56701342 220.543677,10.2019675 220.110632,10.7702797 C219.664524,11.3741159 219.116268,11.8952976 218.490632,12.3102797 C217.809908,12.7686024 217.05565,13.1068345 216.260632,13.3102797 C217.096629,13.600218 217.85815,14.071473 218.490632,14.6902797 C219.200791,15.4241594 219.728336,16.3148193 220.030632,17.2902797 C220.170632,17.7202797 220.350632,18.2102797 220.550632,18.7602797 C220.750632,19.3102797 220.940632,19.8602797 221.120632,20.3902797 C221.300632,20.9202797 221.470632,21.3902797 221.640632,21.8802797 C221.810632,22.3702797 221.930632,22.6802797 222.000632,22.8802797 C222.17111,23.3993728 222.474499,23.8647987 222.880632,24.2302797 C223.177437,24.4948697 223.579009,24.6090784 223.970632,24.5402797 L223.970632,25.1002797 L224.000632,25.1602797 Z M217.000632,6.88027971 C217.007418,6.1920739 216.867655,5.51030446 216.590632,4.88027971 C216.319754,4.29185044 215.927906,3.76711435 215.440632,3.34027971 C214.936567,2.89996006 214.35267,2.56048529 213.720632,2.34027971 C213.015716,2.10144101 212.274781,1.98640997 211.530632,2.00027971 L207.080632,2.00027971 L207.080632,2.18027971 C207.275883,2.18373465 207.456288,2.28521252 207.560632,2.45027971 C207.709275,2.69317698 207.779136,2.9761114 207.760632,3.26027971 L207.760632,10.5502797 C207.781066,10.835977 207.707301,11.1204982 207.550632,11.3602797 C207.437447,11.5258545 207.251159,11.6264499 207.050632,11.6302797 L207.050632,11.8103232 L211.540632,11.8103232 C212.252965,11.8128109 212.961382,11.7048616 213.640632,11.4902797 C214.275165,11.2755326 214.860076,10.935468 215.360632,10.4902797 C215.849789,10.0801715 216.248238,9.57274539 216.530632,9.00027971 C216.836485,8.33514749 216.996727,7.61235348 217.000632,6.88027971 L217.000632,6.88027971 Z" id="Shape" fill="#0062AE"></path>
                <path d="M93.1406317,60.9002797 L92.4206317,60.1702797 C91.9500426,60.6929432 91.2838083,60.9970936 90.5806317,61.0102797 C89.3772442,60.9306271 88.4418766,59.9313005 88.4418766,58.7252797 C88.4418766,57.5192589 89.3772442,56.5199323 90.5806317,56.4402797 C91.2630682,56.4573032 91.9106929,56.7451364 92.3806317,57.2402797 L93.1006317,56.4102797 C92.4428564,55.7372487 91.5310148,55.3739652 90.5906317,55.4102797 C88.7570464,55.4102797 87.2706317,56.8966943 87.2706317,58.7302797 C87.2706317,60.5638651 88.7570464,62.0502797 90.5906317,62.0502797 C91.5812954,62.067573 92.5290861,61.6467393 93.1806317,60.9002797 L93.1406317,60.9002797 Z M99.5706317,59.2202797 L99.5706317,61.9302797 L100.700632,61.9302797 L100.700632,55.5102797 L99.5706317,55.5102797 L99.5706317,58.1802797 L96.5106317,58.1802797 L96.5106317,55.5102797 L95.3806317,55.5102797 L95.3806317,61.9302797 L96.5106317,61.9302797 L96.5106317,59.2202797 L99.5706317,59.2202797 Z M108.170632,55.5002797 L103.410632,55.5002797 L103.410632,61.9202797 L108.220632,61.9202797 L108.220632,60.9202797 L104.540632,60.9202797 L104.540632,59.1802797 L107.760632,59.1802797 L107.760632,58.1802797 L104.540632,58.1802797 L104.540632,56.5002797 L108.170632,56.5002797 L108.170632,55.5002797 L108.170632,55.5002797 Z M115.100632,59.9402797 L111.660632,55.5002797 L110.660632,55.5002797 L110.660632,61.9202797 L111.770632,61.9202797 L111.770632,57.3502797 L115.310632,61.9202797 L116.250632,61.9202797 L116.250632,55.5002797 L115.140632,55.5002797 L115.140632,59.9402797 L115.100632,59.9402797 Z M123.400632,59.9402797 L120.000632,55.5002797 L119.000632,55.5002797 L119.000632,61.9202797 L120.000632,61.9202797 L120.000632,57.3502797 L123.540632,61.9202797 L124.480632,61.9202797 L124.480632,55.5002797 L123.370632,55.5002797 L123.370632,59.9402797 L123.400632,59.9402797 Z M130.540632,55.4602797 L129.540632,55.4602797 L126.710632,61.9302797 L127.870632,61.9302797 L128.530632,60.3802797 L131.530632,60.3802797 L132.180632,61.9302797 L133.370632,61.9302797 L130.550632,55.4602797 L130.540632,55.4602797 Z M131.110632,59.3802797 L128.900632,59.3802797 L130.000632,56.8102797 L131.110632,59.3802797 L131.110632,59.3802797 Z M135.590632,55.5002797 L135.590632,61.9202797 L136.720632,61.9202797 L136.720632,55.5002797 L135.590632,55.5002797 Z" id="Shape" fill="#FFFFFF" fill-rule="nonzero"></path>
                <path d="M40.7306317,41.4802797 L0.000631721966,41.4802797 C5.65063172,41.0902797 24.3106317,40.5602797 40.4306317,40.7202797 C40.5306317,40.9202797 40.6306317,41.2802797 40.7306317,41.4802797 Z" id="Path" fill="#0062AE"></path>
                <path d="M40.7306317,41.8402797 L0.000631721966,41.8402797 C5.65063172,42.2302797 24.3106317,42.7602797 40.4306317,42.6002797 C40.5306317,42.4002797 40.6306317,42.0002797 40.7306317,41.8402797 Z" id="Path" fill="#0062AE"></path>
                <polygon id="Path" fill="#0062AE" points="40.5506317 40.4102797 41.2406317 41.6502797 40.5306317 42.8902797 42.1306317 41.6002797"></polygon>
                <path d="M55.8806317,36.2202797 L54.6606317,36.2202797 L54.6606317,42.4902797 C54.6606317,44.8502797 53.4006317,46.0502797 51.4106317,46.0502797 C49.4206317,46.0502797 48.1106317,44.7402797 48.1106317,42.4102797 L48.1106317,36.2202797 L46.8906317,36.2202797 L46.8906317,42.4902797 C46.8906317,45.4902797 48.7106317,47.1702797 51.3706317,47.1702797 C54.0306317,47.1702797 55.8706317,45.5402797 55.8706317,42.3902797 L55.8706317,36.2202797 L55.8806317,36.2202797 Z M70.9406317,44.8702797 L64.1406317,36.2302797 L63.0006317,36.2302797 L63.0006317,47.0002797 L64.1906317,47.0002797 L64.1906317,38.1702797 L71.1906317,47.0202797 L72.1906317,47.0202797 L72.1906317,36.2302797 L70.9406317,36.2302797 L70.9406317,44.8702797 Z M79.5306317,36.2202797 L79.5306317,47.0002797 L80.7506317,47.0002797 L80.7506317,36.2202797 L79.5306317,36.2202797 Z M92.4206317,45.5102797 L88.5806317,36.2202797 L87.2206317,36.2202797 L91.8606317,47.0802797 L92.9406317,47.0802797 L97.5806317,36.2202797 L96.2706317,36.2202797 L92.4206317,45.5102797 Z M111.750632,36.2202797 L104.000632,36.2202797 L104.000632,47.0002797 L111.880632,47.0002797 L111.880632,45.9002797 L105.220632,45.9002797 L105.220632,42.1202797 L111.110632,42.1202797 L111.110632,41.0002797 L105.220632,41.0002797 L105.220632,37.3302797 L111.800632,37.3302797 L111.800632,36.2202797 L111.750632,36.2202797 Z M127.440632,47.0002797 L124.130632,42.5902797 C125.783175,42.464806 127.06016,41.0875794 127.060632,39.4302797 C127.060632,37.4902797 125.530632,36.2102797 123.160632,36.2102797 L118.520632,36.2102797 L118.520632,47.0002797 L119.740632,47.0002797 L119.740632,42.8202797 L122.820632,42.8202797 L126.000632,47.0002797 L127.440632,47.0002797 Z M125.820632,39.4802797 C125.820632,40.8802797 124.660632,41.7102797 123.050632,41.7102797 L119.740632,41.7102797 L119.740632,37.3402797 L123.070632,37.3402797 C124.800632,37.3402797 125.820632,38.1502797 125.820632,39.4902797 L125.820632,39.4802797 Z M134.820632,38.9102797 C134.820632,37.9102797 135.710632,37.1502797 137.120632,37.1502797 C138.265011,37.149514 139.370525,37.5654149 140.230632,38.3202797 L140.940632,37.3802797 C139.884264,36.4852197 138.534666,36.0116143 137.150632,36.0502797 C135.150632,36.0502797 133.610632,37.2802797 133.610632,39.0502797 C133.610632,40.8202797 134.750632,41.6402797 137.230632,42.1802797 C139.490632,42.6602797 140.030632,43.2302797 140.030632,44.2402797 C140.030632,45.2502797 139.030632,46.0902797 137.630632,46.0902797 C136.240972,46.102496 134.905815,45.5503906 133.930632,44.5602797 L133.170632,45.4502797 C134.359589,46.5787052 135.941546,47.1992915 137.580632,47.1802797 C139.720632,47.1802797 141.260632,45.9802797 141.260632,44.1102797 C141.260632,42.4502797 140.150632,41.5702797 137.750632,41.0402797 C135.350632,40.5102797 134.820632,39.9802797 134.820632,38.9502797 L134.820632,38.9102797 Z M148.090632,36.2102797 L148.090632,47.0002797 L149.310632,47.0002797 L149.310632,36.2202797 L148.090632,36.2102797 Z M160.800632,37.3402797 L164.420632,37.3402797 L164.420632,36.2302797 L156.000632,36.2302797 L156.000632,37.3502797 L159.620632,37.3502797 L159.620632,47.0002797 L160.850632,47.0002797 L160.850632,37.3502797 L160.800632,37.3402797 Z M175.550632,42.7102797 L180.030632,36.2102797 L178.610632,36.2102797 L175.000632,41.6102797 L171.360632,36.2202797 L169.880632,36.2202797 L174.360632,42.7402797 L174.360632,47.0002797 L175.590632,47.0002797 L175.590632,42.7202797 L175.550632,42.7102797 Z" id="Shape" fill="#0062AE"></path>
                <path d="M183.500632,41.4802797 L224.220632,41.4802797 C218.570632,41.0902797 199.910632,40.5602797 183.790632,40.7202797 C183.690632,40.9202797 183.590632,41.2802797 183.500632,41.4802797 Z" id="Path" fill="#0062AE"></path>
                <path d="M183.500632,41.8402797 L224.220632,41.8402797 C218.570632,42.2302797 199.910632,42.7602797 183.790632,42.6002797 C183.690632,42.4002797 183.590632,42.0002797 183.500632,41.8402797 Z" id="Path" fill="#0062AE"></path>
                <polygon id="Path" fill="#0062AE" points="183.680632 40.4102797 182.980632 41.6502797 183.700632 42.8902797 182.090632 41.6002797"></polygon>
            </g>
        </g>
    </g>
</svg>