<?xml version="1.0" encoding="UTF-8"?>
<svg width="377px" height="168px" viewBox="0 0 377 168" version="1.1" xmlns="http://www.w3.org/2000/svg" xmlns:xlink="http://www.w3.org/1999/xlink">
    <title>ssn</title>
    <defs>
        <path d="M336.1,151.8 L360,65 L363,53.2 C364.4,48 365,43 365,37 C365,14.2 349.9,0 325.5,0 C305.8,0 283.4,9.3 267.4,30.5 C267.4,29.6 274.6,3.6 274.6,3.6 L224.8,3.6 L224.4,5.6 L213.5,49.4 C211.9,55.2 209.9,62.4 207.8,70.3 C205.225902,81.8514207 199.7,146.69194 199.7,151.5 L236.3,151.5 L257.6,73.7 C263.1,53.1 272.5,29.5 295.7,29.5 C305,29.5 312.3,36.1 312.3,44.5 C312.3,48.8 311.9,55.4 309.9,62.4 L309.5,63.8 L290.4,133.9 L287.6,144.2 L287.5,144.3 L285.4,152.1 L336.1,151.8 Z" id="path-1"></path>
        <filter x="-5.1%" y="-4.3%" width="110.3%" height="111.2%" filterUnits="objectBoundingBox" id="filter-2">
            <feMorphology radius="1.5" operator="dilate" in="SourceAlpha" result="shadowSpreadOuter1"></feMorphology>
            <feOffset dx="0" dy="2" in="shadowSpreadOuter1" result="shadowOffsetOuter1"></feOffset>
            <feGaussianBlur stdDeviation="2" in="shadowOffsetOuter1" result="shadowBlurOuter1"></feGaussianBlur>
            <feComposite in="shadowBlurOuter1" in2="SourceAlpha" operator="out" result="shadowBlurOuter1"></feComposite>
            <feColorMatrix values="0 0 0 0 0   0 0 0 0 0   0 0 0 0 0  0 0 0 0.5 0" type="matrix" in="shadowBlurOuter1"></feColorMatrix>
        </filter>
        <filter x="-4.8%" y="-3.9%" width="109.7%" height="110.5%" filterUnits="objectBoundingBox" id="filter-3">
            <feGaussianBlur stdDeviation="2" in="SourceAlpha" result="shadowBlurInner1"></feGaussianBlur>
            <feOffset dx="0" dy="1" in="shadowBlurInner1" result="shadowOffsetInner1"></feOffset>
            <feComposite in="shadowOffsetInner1" in2="SourceAlpha" operator="arithmetic" k2="-1" k3="1" result="shadowInnerInner1"></feComposite>
            <feColorMatrix values="0 0 0 0 0   0 0 0 0 0   0 0 0 0 0  0 0 0 1 0" type="matrix" in="shadowInnerInner1"></feColorMatrix>
        </filter>
        <path d="M135.2,8.1 C121.059505,14.0900603 112.826172,27.7233936 110.5,49 C111.1,64 119.1,74.3 137.2,83.2 L163.4,96 C170.8,99.6 177.4,103.7 177.4,114 C177.4,124.5 168.9,131.9 156.6,131.9 C144.3,131.9 131.343748,119.7 131.343748,107.4 C130.743748,123.6 125.30764,133.564668 112.80764,142.864668 C111.40764,143.964668 108.790563,146.58422 107.190563,147.48422 C117.290563,152.28422 135.6,156.4 154.3,156.4 C197.4,156.4 223.2,137.2 223.2,105.1 C223.2,90 215.3,78.7 199.7,71.4 L172.5,58.9 C161.8,53.9 156.4,47.5 156.4,39.7 C156.4,30.7 163.6,24.6 174.3,24.6 C185.4,24.6 191.6,30.8 191.6,42.2 L191.5,44.8 L191.9,44.8 L235.5,44.8 L235.5,44.4 C235.7,41.8 235.9,39.2 235.9,36.9 C235.8,6.5 204.7,0.1 178.6,0.1 C160.8,0.1 146.2,2.9 135.2,8.1 Z" id="path-4"></path>
        <filter x="-8.3%" y="-4.2%" width="114.9%" height="110.9%" filterUnits="objectBoundingBox" id="filter-5">
            <feMorphology radius="1.5" operator="dilate" in="SourceAlpha" result="shadowSpreadOuter1"></feMorphology>
            <feOffset dx="0" dy="2" in="shadowSpreadOuter1" result="shadowOffsetOuter1"></feOffset>
            <feGaussianBlur stdDeviation="2" in="shadowOffsetOuter1" result="shadowBlurOuter1"></feGaussianBlur>
            <feComposite in="shadowBlurOuter1" in2="SourceAlpha" operator="out" result="shadowBlurOuter1"></feComposite>
            <feColorMatrix values="0 0 0 0 0   0 0 0 0 0   0 0 0 0 0  0 0 0 0.5 0" type="matrix" in="shadowBlurOuter1"></feColorMatrix>
        </filter>
        <filter x="-7.9%" y="-3.8%" width="114.1%" height="110.2%" filterUnits="objectBoundingBox" id="filter-6">
            <feGaussianBlur stdDeviation="2" in="SourceAlpha" result="shadowBlurInner1"></feGaussianBlur>
            <feOffset dx="0" dy="1" in="shadowBlurInner1" result="shadowOffsetInner1"></feOffset>
            <feComposite in="shadowOffsetInner1" in2="SourceAlpha" operator="arithmetic" k2="-1" k3="1" result="shadowInnerInner1"></feComposite>
            <feColorMatrix values="0 0 0 0 0   0 0 0 0 0   0 0 0 0 0  0 0 0 1 0" type="matrix" in="shadowInnerInner1"></feColorMatrix>
        </filter>
        <path d="M18.9,47.3 C18.9,63.2 26.9,73.9 45.6,83.2 L71.8,96 C79.2,99.6 85.8,103.7 85.8,114 C85.8,124.5 77.3,131.9 65,131.9 C52.7,131.9 44.8,123.9 44.8,111.6 L44.9,107.4 L44.5,107.4 L0.3,107.4 L0.3,107.8 C0,110.5 0,113.2 0,115.6 C0,129.9 4.9,140.1 14.9,146.6 C25,153.2 40.7,156.5 62.8,156.5 C105.9,156.5 131.7,137.3 131.7,105.2 C131.7,90.1 123.8,78.8 108.2,71.5 L81.1,59 C70.4,54 65,47.6 65,39.8 C65,30.8 72.2,24.7 82.9,24.7 C94.1,24.7 100.2,30.9 100.2,42.3 L100.1,44.9 L100.5,44.9 L144.1,44.9 L144.1,44.5 C144.3,41.9 144.5,39.3 144.5,37 C144.5,6.5 113.4,0.1 87.3,0.1 C43.2,0.1 18.9,16.9 18.9,47.3" id="path-7"></path>
        <filter x="-5.9%" y="-4.2%" width="111.8%" height="110.9%" filterUnits="objectBoundingBox" id="filter-8">
            <feMorphology radius="1.5" operator="dilate" in="SourceAlpha" result="shadowSpreadOuter1"></feMorphology>
            <feOffset dx="0" dy="2" in="shadowSpreadOuter1" result="shadowOffsetOuter1"></feOffset>
            <feGaussianBlur stdDeviation="2" in="shadowOffsetOuter1" result="shadowBlurOuter1"></feGaussianBlur>
            <feComposite in="shadowBlurOuter1" in2="SourceAlpha" operator="out" result="shadowBlurOuter1"></feComposite>
            <feColorMatrix values="0 0 0 0 0   0 0 0 0 0   0 0 0 0 0  0 0 0 0.5 0" type="matrix" in="shadowBlurOuter1"></feColorMatrix>
        </filter>
        <filter x="-5.5%" y="-3.8%" width="111.1%" height="110.2%" filterUnits="objectBoundingBox" id="filter-9">
            <feGaussianBlur stdDeviation="2" in="SourceAlpha" result="shadowBlurInner1"></feGaussianBlur>
            <feOffset dx="0" dy="1" in="shadowBlurInner1" result="shadowOffsetInner1"></feOffset>
            <feComposite in="shadowOffsetInner1" in2="SourceAlpha" operator="arithmetic" k2="-1" k3="1" result="shadowInnerInner1"></feComposite>
            <feColorMatrix values="0 0 0 0 0   0 0 0 0 0   0 0 0 0 0  0 0 0 1 0" type="matrix" in="shadowInnerInner1"></feColorMatrix>
        </filter>
    </defs>
    <g id="Page-1" stroke="none" stroke-width="1" fill="none" fill-rule="evenodd">
        <g id="Artboard" transform="translate(-753.000000, -483.000000)" fill-rule="nonzero">
            <g id="ssn" transform="translate(759.000000, 487.000000)">
                <g id="XMLID_5_">
                    <use fill="black" fill-opacity="1" filter="url(#filter-2)" xlink:href="#path-1"></use>
                    <use fill="#0D4BA0" xlink:href="#path-1"></use>
                    <use fill="black" fill-opacity="1" filter="url(#filter-3)" xlink:href="#path-1"></use>
                    <use stroke="#FFFFFF" stroke-width="3" xlink:href="#path-1"></use>
                </g>
                <g id="XMLID_4_">
                    <use fill="black" fill-opacity="1" filter="url(#filter-5)" xlink:href="#path-4"></use>
                    <use fill="#0D4BA0" xlink:href="#path-4"></use>
                    <use fill="black" fill-opacity="1" filter="url(#filter-6)" xlink:href="#path-4"></use>
                    <use stroke="#FFFFFF" stroke-width="3" xlink:href="#path-4"></use>
                </g>
                <g id="XMLID_3_">
                    <use fill="black" fill-opacity="1" filter="url(#filter-8)" xlink:href="#path-7"></use>
                    <use fill="#0D4BA0" xlink:href="#path-7"></use>
                    <use fill="black" fill-opacity="1" filter="url(#filter-9)" xlink:href="#path-7"></use>
                    <use stroke="#FFFFFF" stroke-width="3" xlink:href="#path-7"></use>
                </g>
            </g>
        </g>
    </g>
</svg>