<?xml version="1.0" encoding="utf-8"?>
<!-- Generator: Adobe Illustrator 19.0.0, SVG Export Plug-In . SVG Version: 6.00 Build 0)  -->
<svg version="1.1" id="Layer_1" xmlns="http://www.w3.org/2000/svg" xmlns:xlink="http://www.w3.org/1999/xlink" x="0px" y="0px"
	 viewBox="0 0 500 500" style="enable-background:new 0 0 500 500;" xml:space="preserve">
<style type="text/css">
	.st0{fill:#0D4BA0;}
</style>
<g id="XMLID_1_">
	<path id="XMLID_3_" class="st0" d="M86.4,219.1c0,15.9,8,26.6,26.7,35.9l26.2,12.8c7.4,3.6,14,7.7,14,18c0,10.5-8.5,17.9-20.8,17.9
		c-12.3,0-20.2-8-20.2-20.3l0.1-4.2h-0.4H67.8l0,0.4c-0.3,2.7-0.3,5.4-0.3,7.8c0,14.3,4.9,24.5,14.9,31c10.1,6.6,25.8,9.9,47.9,9.9
		c43.1,0,68.9-19.2,68.9-51.3c0-15.1-7.9-26.4-23.5-33.7l-27.1-12.5c-10.7-5-16.1-11.4-16.1-19.2c0-9,7.2-15.1,17.9-15.1
		c11.2,0,17.3,6.2,17.3,17.6l-0.1,2.6h0.4h43.6l0-0.4c0.2-2.6,0.4-5.2,0.4-7.5c0-30.5-31.1-36.9-57.2-36.9
		C110.7,171.9,86.4,188.7,86.4,219.1"/>
	<path id="XMLID_4_" class="st0" d="M246.1,171.9c-17.8,0-32.4,2.8-43.4,8c8.8,6.9,13.4,16.8,13.4,28.8c0,2.5-0.2,5.1-0.4,7.8
		l-0.3,4.3h-37.4c0.6,15,8.6,25.3,26.7,34.2l26.2,12.8c7.4,3.6,14,7.7,14,18c0,10.5-8.5,17.9-20.8,17.9c-12.3,0-20.2-8-20.2-20.3
		l0.1-4.2h-0.4h-0.3c-0.6,16.2-7.4,29.6-19.9,38.9c-1.4,1.1-2.9,2.1-4.5,3c10.1,4.8,24.2,7.1,42.9,7.1c43.1,0,68.9-19.2,68.9-51.3
		c0-15.1-7.9-26.4-23.5-33.7L240,230.7c-10.7-5-16.1-11.4-16.1-19.2c0-9,7.2-15.1,17.9-15.1c11.1,0,17.3,6.2,17.3,17.6l-0.1,2.6h0.4
		h43.6l0-0.4c0.2-2.6,0.4-5.2,0.4-7.5C303.3,178.3,272.2,171.9,246.1,171.9"/>
	<path id="XMLID_5_" class="st0" d="M352.9,323.9l50.7-0.3l23.9-86.8l3-11.8c1.4-5.2,2-10.2,2-16.2c0-22.8-15.1-37-39.5-37
		c-19.7,0-42.1,9.3-58.1,30.5c0-0.9,7.2-26.9,7.2-26.9h-49.8l-0.4,2l0,0.1c10.6,7.1,16.1,17.7,16.1,31.1c0,2.5-0.2,5.1-0.4,7.8
		l-0.4,4.8h-26.2c-1.6,5.8-3.6,13-5.7,20.9c13,8.1,19.9,20,19.9,34.7c0,17.4-7,31.7-20.2,41.6c-2.4,1.8-5,3.4-7.8,4.9h36.6
		l21.3-77.8c5.5-20.6,14.9-44.2,38.1-44.2c9.3,0,16.6,6.6,16.6,15c0,4.3-0.4,10.9-2.4,17.9l0.1-0.1l-0.5,1.5l-19.1,70.1l-2.8,10.3
		l-0.1,0.1l0,0.1l-0.5,1.7"/>
</g>
</svg>
