<svg xmlns="http://www.w3.org/2000/svg" viewBox="0 0 306.77 45.67">
  <g id="Layer_2" data-name="Layer 2">
    <g id="Layer_1-2" data-name="Layer 1">
      <g>
        <g>
          <path d="M71.28,18.55c.08-.8.12-1.55.12-2.24s0-1.11-.06-1.64a10,10,0,0,0-.19-1.39A4.66,4.66,0,0,0,70,13.09c-.53,0-1-.06-1.4-.06a7.73,7.73,0,0,0-4.89,1.52,14.71,14.71,0,0,0-3.3,3.34c0-.29-.1-.63-.19-1A12.33,12.33,0,0,0,60,15.58a7.62,7.62,0,0,0-.31-1.21,2.91,2.91,0,0,0-.3-.91c-.57-.12-1.16-.22-1.77-.31A12.77,12.77,0,0,0,55.87,13a13.18,13.18,0,0,0-1.83.12,14.72,14.72,0,0,0-1.71.25V44.83c.77.12,1.51.2,2.2.24s1.45.06,2.14.06,1.4,0,2.14-.06a20.54,20.54,0,0,0,2.2-.24V29.9a14.13,14.13,0,0,1,.73-5.1,6.87,6.87,0,0,1,2-2.73A5.14,5.14,0,0,1,66.14,21a12.78,12.78,0,0,1,2.32-.24h1a8.8,8.8,0,0,1,1.53.12A14,14,0,0,0,71.28,18.55Z" fill="#fff" fill-rule="evenodd"/>
          <path d="M97.23,17.46a13.13,13.13,0,0,0-4.76-3.52,18.44,18.44,0,0,0-13.45,0,13.38,13.38,0,0,0-4.71,3.52,15.4,15.4,0,0,0-2.81,5.22,22.38,22.38,0,0,0-.91,6.49,21.73,21.73,0,0,0,.91,6.43,16,16,0,0,0,2.81,5.22A13.6,13.6,0,0,0,79,44.28a19.29,19.29,0,0,0,13.45,0,13.34,13.34,0,0,0,4.76-3.46A14.47,14.47,0,0,0,100,35.6a21.4,21.4,0,0,0,.92-6.43,22,22,0,0,0-.92-6.49A14,14,0,0,0,97.23,17.46Zm-6.6,19a5.23,5.23,0,0,1-4.89,2.49,5.31,5.31,0,0,1-4.89-2.49,14.85,14.85,0,0,1-1.46-7.28A14.51,14.51,0,0,1,80.85,22a5.28,5.28,0,0,1,4.89-2.55A5.19,5.19,0,0,1,90.63,22q1.53,2.49,1.53,7.22A14.24,14.24,0,0,1,90.63,36.45Z" fill="#fff" fill-rule="evenodd"/>
          <path d="M125.35,37.36c-.69.25-1.3.45-1.83.61a9.84,9.84,0,0,1-1.47.36,14.53,14.53,0,0,1-1.53.19h-1.65a7.29,7.29,0,0,1-5.62-2.25c-1.38-1.49-2.08-3.88-2.08-7.16q0-4.55,1.9-7a6.88,6.88,0,0,1,5.74-2.48,17.91,17.91,0,0,1,3.12.24,17.15,17.15,0,0,1,3.24.79,13.5,13.5,0,0,0,1.16-3.28,15.2,15.2,0,0,0,.37-3.15c-.86-.33-1.63-.59-2.32-.79A20.15,20.15,0,0,0,122.3,13a18.75,18.75,0,0,0-2.2-.24c-.74,0-1.55-.06-2.45-.06A16.32,16.32,0,0,0,111,13.94a13.75,13.75,0,0,0-4.83,3.52,15.59,15.59,0,0,0-2.87,5.22,21.77,21.77,0,0,0-.92,6.43,21.25,21.25,0,0,0,1,6.55,14.75,14.75,0,0,0,2.87,5.16,13.94,13.94,0,0,0,4.89,3.46A18,18,0,0,0,118,45.49a32.11,32.11,0,0,0,4.46-.3A18.14,18.14,0,0,0,127.06,44a13,13,0,0,0-.48-3.76A12.37,12.37,0,0,0,125.35,37.36Z" fill="#fff" fill-rule="evenodd"/>
          <path d="M128.94.41V44.77a24.94,24.94,0,0,0,4.27.36,26,26,0,0,0,4.34-.36V.41a26,26,0,0,0-4.34-.36A24.94,24.94,0,0,0,128.94.41Z" fill="#fff" fill-rule="evenodd"/>
          <path d="M156,13.4a26.86,26.86,0,0,0-4.52-.37,31,31,0,0,0-4.83.37l-7.82,14.92,9.16,16.45a30.4,30.4,0,0,0,4.53.36,33.93,33.93,0,0,0,4.82-.36L147.88,27.9Z" fill="#fff" fill-rule="evenodd"/>
          <path d="M181.17,17a12.57,12.57,0,0,0-4.34-3.16A14.17,14.17,0,0,0,171,12.67,15.68,15.68,0,0,0,164.3,14a14,14,0,0,0-4.77,3.52,15.49,15.49,0,0,0-2.87,5.28,21.1,21.1,0,0,0-1,6.49,22.05,22.05,0,0,0,.92,6.5,14.3,14.3,0,0,0,2.93,5.15,13.93,13.93,0,0,0,5.14,3.34,21.22,21.22,0,0,0,7.58,1.21A29.82,29.82,0,0,0,183,43.67a14.66,14.66,0,0,0-.55-3.64,13.67,13.67,0,0,0-1.16-2.91,25.26,25.26,0,0,1-4.15,1.15,24.49,24.49,0,0,1-4.22.37A10.37,10.37,0,0,1,166.81,37a6.57,6.57,0,0,1-2.57-5.28h20.29a14.85,14.85,0,0,0,.18-1.76,19.83,19.83,0,0,0,.13-2.3,18.41,18.41,0,0,0-.92-5.89A13,13,0,0,0,181.17,17ZM164.3,25.71a8,8,0,0,1,1.89-4.79,6.07,6.07,0,0,1,4.65-1.7A5.06,5.06,0,0,1,175,21a7.48,7.48,0,0,1,1.65,4.67Z" fill="#fff" fill-rule="evenodd"/>
          <path d="M205.4,37.85l-1.58.3a12.87,12.87,0,0,1-1.78.12,7.48,7.48,0,0,1-2-.24,3.07,3.07,0,0,1-1.47-.91,4.75,4.75,0,0,1-.86-1.82,12.43,12.43,0,0,1-.3-3V20h7.39a14.55,14.55,0,0,0,.25-1.76c0-.53.06-1.07.06-1.64s0-1-.06-1.51a12.65,12.65,0,0,0-.25-1.64H197.4V4.24H196l-11.43,14.5.31,1.21h4v14.2q0,5.82,2.93,8.43t8.5,2.55a24.83,24.83,0,0,0,5.81-.67,6,6,0,0,0,.06-.85,9.4,9.4,0,0,0,.06-1.15,15,15,0,0,0-.18-2.18A12,12,0,0,0,205.4,37.85Z" fill="#fff" fill-rule="evenodd"/>
          <path d="M220.68,39.77l-.25.07a8.88,8.88,0,0,1-1.19.17,10.31,10.31,0,0,1-2.65,0,2.86,2.86,0,0,1-1.1-.59,3.78,3.78,0,0,1-.74-1.42,9.23,9.23,0,0,1-.29-2.59V.29l-.22,0a12.88,12.88,0,0,0-1.55-.19,19.28,19.28,0,0,0-3,0,12.59,12.59,0,0,0-1.49.19l-.22,0V36.7a11,11,0,0,0,.69,4.16,6.84,6.84,0,0,0,1.91,2.71A7.37,7.37,0,0,0,213.33,45a12.54,12.54,0,0,0,3.37.44c.7,0,1.47,0,2.27-.12a8,8,0,0,0,2.16-.38l.18-.07v-.18a18.7,18.7,0,0,0-.56-4.68Z" fill="#fff" fill-rule="evenodd"/>
          <path d="M242.87,15.57c-2.15-1.88-5.31-2.84-9.41-2.84a34.29,34.29,0,0,0-4.85.37,27.85,27.85,0,0,0-4.62,1l-.12,0v.13a9.59,9.59,0,0,0,1.19,4.88l.07.12.13,0a27.51,27.51,0,0,1,3.59-.84,21.16,21.16,0,0,1,4-.37,8.56,8.56,0,0,1,5.21,1.36c1.17.89,1.76,2.52,1.76,4.84v.95c-.54-.07-1.19-.12-1.94-.16s-1.9-.12-3.2-.12a19,19,0,0,0-5.05.67,12.36,12.36,0,0,0-4.28,2,9.24,9.24,0,0,0-4,8,10.53,10.53,0,0,0,.94,4.63,8.4,8.4,0,0,0,2.62,3.16A11.66,11.66,0,0,0,229,45.12a25,25,0,0,0,5.48.55,35,35,0,0,0,6.26-.55c2-.32,3.79-.65,5.21-1l.14,0V24.5C246.11,20.42,245,17.42,242.87,15.57ZM239.82,39.9a20.71,20.71,0,0,1-2.52.44c-1,.08-1.94.12-2.86.12-.72,0-1.5,0-2.31-.12a6,6,0,0,1-2.19-.64,4.6,4.6,0,0,1-1.59-1.52,5.06,5.06,0,0,1-.64-2.76,4.71,4.71,0,0,1,1.88-4.1,10.06,10.06,0,0,1,5.7-1.36c.64,0,1.44,0,2.37.12s1.59.15,2.16.22Z" fill="#fff" fill-rule="evenodd"/>
          <path d="M265.33,12.82a11,11,0,0,0-3.51.55A10.3,10.3,0,0,0,259,14.72a12.29,12.29,0,0,0-2.22,1.83,15.2,15.2,0,0,0-1.37,1.82c0-.63-.08-1.39-.18-2.25-.13-1.05-.25-1.89-.37-2.5v-.06h-.06c-.45-.08-.89-.14-1.29-.18a14,14,0,0,0-2.59,0q-.61.06-1.29.18l-.07,0V44.84h.07a14.72,14.72,0,0,0,1.54.19q.85.06,1.53.06c.45,0,.95,0,1.48-.06a14.85,14.85,0,0,0,1.53-.19h.08V29a15.38,15.38,0,0,1,.66-4.82,9.88,9.88,0,0,1,1.88-3.31A7.14,7.14,0,0,1,261,19a8.59,8.59,0,0,1,3.2-.6,4.68,4.68,0,0,1,4.21,2c.88,1.32,1.33,3.42,1.33,6.27V44.84h.07a14.87,14.87,0,0,0,1.48.19q.86.06,1.53.06c.45,0,1,0,1.54-.06a14.51,14.51,0,0,0,1.53-.19h.08V25.05c0-4-.87-7.07-2.59-9.1S268.93,12.82,265.33,12.82Z" fill="#fff" fill-rule="evenodd"/>
          <path d="M305.92,21.59A12.62,12.62,0,0,0,303.41,17a11.33,11.33,0,0,0-4.09-3,14,14,0,0,0-5.69-1.09,15.28,15.28,0,0,0-6.6,1.34,12.7,12.7,0,0,0-4.58,3.52A14.5,14.5,0,0,0,279.7,23a23.26,23.26,0,0,0-.86,6.44,22,22,0,0,0,.92,6.49A13.68,13.68,0,0,0,282.63,41a14,14,0,0,0,5.08,3.34A20.74,20.74,0,0,0,295,45.49a30.78,30.78,0,0,0,5.32-.42,20.76,20.76,0,0,0,4.46-1.27,13.19,13.19,0,0,0-.37-2.55,9.2,9.2,0,0,0-.79-2.25,22.66,22.66,0,0,1-8.25,1.52q-4.95,0-7.52-2.37c-1.67-1.58-2.55-4.06-2.63-7.46h21.33c0-.45.08-1,.12-1.58s.06-1.25.06-1.82A18.22,18.22,0,0,0,305.92,21.59Zm-20.6,4.61A11.08,11.08,0,0,1,287.71,20a7.29,7.29,0,0,1,5.74-2.24,6.8,6.8,0,0,1,3.24.72A6,6,0,0,1,299,20.25,7.6,7.6,0,0,1,300.3,23a10.68,10.68,0,0,1,.48,3.22Z" fill="#fff" fill-rule="evenodd"/>
          <path d="M6.88,12.52A16.62,16.62,0,0,0,0,14L6.88,29.08,0,44.16a16.67,16.67,0,0,0,12,.68l7.19-15.76L12,13.32A16.48,16.48,0,0,0,6.88,12.52Z" fill="#fff" fill-rule="evenodd"/>
        </g>
        <path d="M31.9,13.32l7.19,15.76L31.9,44.84a16.67,16.67,0,0,1-12-.68L26.8,29.08,19.93,14a16.67,16.67,0,0,1,12-.68Z" fill="#06f" fill-rule="evenodd"/>
      </g>
    </g>
  </g>
</svg>
